<svg class="main-svg" xmlns="http://www.w3.org/2000/svg" xmlns:xlink="http://www.w3.org/1999/xlink" width="700" height="500" style="" viewBox="0 0 700 500"><rect x="0" y="0" width="700" height="500" style="fill: rgb(255, 255, 255); fill-opacity: 1;"/><defs id="defs-2b189f"><g class="clips"><clipPath id="clip2b189fxyplot" class="plotclip"><rect width="243" height="309"/></clipPath><clipPath id="clip2b189fx2y2plot" class="plotclip"><rect width="242.99999999999997" height="309"/></clipPath><clipPath class="axesclip" id="clip2b189fx"><rect x="80" y="0" width="243" height="500"/></clipPath><clipPath class="axesclip" id="clip2b189fy"><rect x="0" y="100" width="700" height="309"/></clipPath><clipPath class="axesclip" id="clip2b189fxy"><rect x="80" y="100" width="243" height="309"/></clipPath><clipPath class="axesclip" id="clip2b189fy2"><rect x="0" y="100" width="700" height="309"/></clipPath><clipPath class="axesclip" id="clip2b189fxy2"><rect x="80" y="100" width="243" height="309"/></clipPath><clipPath class="axesclip" id="clip2b189fx2"><rect x="377" y="0" width="242.99999999999997" height="500"/></clipPath><clipPath class="axesclip" id="clip2b189fx2y"><rect x="377" y="100" width="242.99999999999997" height="309"/></clipPath><clipPath class="axesclip" id="clip2b189fx2y2"><rect x="377" y="100" width="242.99999999999997" height="309"/></clipPath></g><g class="gradients"/></defs><g class="bglayer"/><g class="layer-below"><g class="imagelayer"/><g class="shapelayer"/></g><g class="cartesianlayer"><g class="subplot xy"><g class="layer-subplot"><g class="shapelayer"/><g class="imagelayer"/></g><g class="gridlayer"><g class="x"/><g class="y"/></g><g class="zerolinelayer"/><path class="xlines-below"/><path class="ylines-below"/><g class="overlines-below"/><g class="xaxislayer-below"/><g class="yaxislayer-below"/><g class="overaxes-below"/><g class="plot" transform="translate(80,100)" clip-path="url('#clip2b189fxyplot')"><g class="boxlayer mlayer"><g class="trace boxes" style="opacity: 1;"><path class="box" d="M23.89,131.63H38.4M23.89,175.28H38.4V124.66H23.89ZM31.14,175.28V211.88M31.14,124.66V66.8M27.51,211.88H34.77M27.51,66.8H34.77" style="vector-effect: non-scaling-stroke; stroke-width: 2px; stroke: rgb(248, 154, 54); stroke-opacity: 1; fill: rgb(248, 154, 54); fill-opacity: 0.5;"/><path class="box" d="M142.39,144.1H156.9M142.39,180.36H156.9V113.58H142.39ZM149.64,180.36V243.41M149.64,113.58V66.8M146.01,243.41H153.27M146.01,66.8H153.27" style="vector-effect: non-scaling-stroke; stroke-width: 2px; stroke: rgb(248, 154, 54); stroke-opacity: 1; fill: rgb(248, 154, 54); fill-opacity: 0.5;"/><g class="points"/><g class="points"/></g><g class="trace boxes" style="opacity: 1;"><path class="box" d="M44.62,131.63H59.14M44.62,175.28H59.14V124.66H44.62ZM51.88,175.28V211.88M51.88,124.66V66.8M48.25,211.88H55.51M48.25,66.8H55.51" style="vector-effect: non-scaling-stroke; stroke-width: 2px; stroke: rgb(25, 183, 223); stroke-opacity: 1; fill: rgb(25, 183, 223); fill-opacity: 0.5;"/><path class="box" d="M163.12,130.93H177.64M163.12,158.4H177.64V117.3H163.12ZM170.38,158.4V164.59M170.38,117.3V66.8M166.75,164.59H174.01M166.75,66.8H174.01" style="vector-effect: non-scaling-stroke; stroke-width: 2px; stroke: rgb(25, 183, 223); stroke-opacity: 1; fill: rgb(25, 183, 223); fill-opacity: 0.5;"/><g class="points"/><g class="points"><path class="point" transform="translate(170.38,259.18)" d="M3,0A3,3 0 1,1 0,-3A3,3 0 0,1 3,0Z" style="opacity: 1; stroke-width: 0px; fill: rgb(25, 183, 223); fill-opacity: 1;"/></g></g><g class="trace boxes" style="opacity: 1;"><path class="box" d="M65.36,167.71H79.88M65.36,202.38H79.88V150.6H65.36ZM72.62,202.38V223.5M72.62,150.6V148M68.99,223.5H76.25M68.99,148H76.25" style="vector-effect: non-scaling-stroke; stroke-width: 2px; stroke: rgb(101, 115, 126); stroke-opacity: 1; fill: rgb(101, 115, 126); fill-opacity: 0.5;"/><path class="box" d="M183.86,149.91H198.38M183.86,163.23H198.38V148.91H183.86ZM191.12,163.23V183.97M191.12,148.91V136.82M187.49,183.97H194.75M187.49,136.82H194.75" style="vector-effect: non-scaling-stroke; stroke-width: 2px; stroke: rgb(101, 115, 126); stroke-opacity: 1; fill: rgb(101, 115, 126); fill-opacity: 0.5;"/><g class="points"/><g class="points"/></g><g class="trace boxes" style="opacity: 1;"><path class="box" d="M86.1,164.4H100.61M86.1,194.75H100.61V125.55H86.1ZM93.36,194.75V284.66M93.36,125.55V33.23M89.73,284.66H96.99M89.73,33.23H96.99" style="vector-effect: non-scaling-stroke; stroke-width: 2px; stroke: rgb(169, 169, 169); stroke-opacity: 1; fill: rgb(169, 169, 169); fill-opacity: 0.5;"/><path class="box" d="M204.6,190.71H219.11M204.6,191.71H219.11V123.46H204.6ZM211.86,191.71V293.55M211.86,123.46V123.46M208.23,293.55H215.49M208.23,123.46H215.49" style="vector-effect: non-scaling-stroke; stroke-width: 2px; stroke: rgb(169, 169, 169); stroke-opacity: 1; fill: rgb(169, 169, 169); fill-opacity: 0.5;"/><g class="points"/><g class="points"><path class="point" transform="translate(211.86,15.45)" d="M3,0A3,3 0 1,1 0,-3A3,3 0 0,1 3,0Z" style="opacity: 1; stroke-width: 0px; fill: rgb(169, 169, 169); fill-opacity: 1;"/><path class="point" transform="translate(211.86,15.45)" d="M3,0A3,3 0 1,1 0,-3A3,3 0 0,1 3,0Z" style="opacity: 1; stroke-width: 0px; fill: rgb(169, 169, 169); fill-opacity: 1;"/></g></g></g></g><g class="overplot"/><path class="xlines-above crisp" d="M79,409.5H323" style="fill: none; stroke-width: 1px; stroke: rgb(36, 36, 36); stroke-opacity: 1;"/><path class="ylines-above crisp" d="M79.5,100V409" style="fill: none; stroke-width: 1px; stroke: rgb(36, 36, 36); stroke-opacity: 1;"/><g class="overlines-above"/><g class="xaxislayer-above"><path class="xtick ticks crisp" d="M0,410v5" transform="translate(142.25,0)" style="stroke: rgb(68, 68, 68); stroke-opacity: 1; stroke-width: 1px;"/><path class="xtick ticks crisp" d="M0,410v5" transform="translate(260.75,0)" style="stroke: rgb(68, 68, 68); stroke-opacity: 1; stroke-width: 1px;"/><g class="xtick"><text text-anchor="middle" x="0" y="429.4" transform="translate(142.25,0)" style="font-family: 'Open Sans', verdana, arial, sans-serif; font-size: 12px; fill: rgb(36, 36, 36); fill-opacity: 1; white-space: pre;">Logistic Regression</text></g><g class="xtick"><text text-anchor="middle" x="0" y="429.4" transform="translate(260.75,0)" style="font-family: 'Open Sans', verdana, arial, sans-serif; font-size: 12px; fill: rgb(36, 36, 36); fill-opacity: 1; white-space: pre;">Random Forest</text></g></g><g class="yaxislayer-above"><path class="ytick ticks crisp" d="M79,0h-5" transform="translate(0,392.28)" style="stroke: rgb(68, 68, 68); stroke-opacity: 1; stroke-width: 1px;"/><path class="ytick ticks crisp" d="M79,0h-5" transform="translate(0,346.57)" style="stroke: rgb(68, 68, 68); stroke-opacity: 1; stroke-width: 1px;"/><path class="ytick ticks crisp" d="M79,0h-5" transform="translate(0,300.85)" style="stroke: rgb(68, 68, 68); stroke-opacity: 1; stroke-width: 1px;"/><path class="ytick ticks crisp" d="M79,0h-5" transform="translate(0,255.13)" style="stroke: rgb(68, 68, 68); stroke-opacity: 1; stroke-width: 1px;"/><path class="ytick ticks crisp" d="M79,0h-5" transform="translate(0,209.42000000000002)" style="stroke: rgb(68, 68, 68); stroke-opacity: 1; stroke-width: 1px;"/><path class="ytick ticks crisp" d="M79,0h-5" transform="translate(0,163.7)" style="stroke: rgb(68, 68, 68); stroke-opacity: 1; stroke-width: 1px;"/><path class="ytick ticks crisp" d="M79,0h-5" transform="translate(0,117.99)" style="stroke: rgb(68, 68, 68); stroke-opacity: 1; stroke-width: 1px;"/><g class="ytick"><text text-anchor="end" x="71.6" y="4.199999999999999" transform="translate(0,392.28)" style="font-family: 'Open Sans', verdana, arial, sans-serif; font-size: 12px; fill: rgb(36, 36, 36); fill-opacity: 1; white-space: pre;">0.55</text></g><g class="ytick"><text text-anchor="end" x="71.6" y="4.199999999999999" transform="translate(0,346.57)" style="font-family: 'Open Sans', verdana, arial, sans-serif; font-size: 12px; fill: rgb(36, 36, 36); fill-opacity: 1; white-space: pre;">0.6</text></g><g class="ytick"><text text-anchor="end" x="71.6" y="4.199999999999999" transform="translate(0,300.85)" style="font-family: 'Open Sans', verdana, arial, sans-serif; font-size: 12px; fill: rgb(36, 36, 36); fill-opacity: 1; white-space: pre;">0.65</text></g><g class="ytick"><text text-anchor="end" x="71.6" y="4.199999999999999" transform="translate(0,255.13)" style="font-family: 'Open Sans', verdana, arial, sans-serif; font-size: 12px; fill: rgb(36, 36, 36); fill-opacity: 1; white-space: pre;">0.7</text></g><g class="ytick"><text text-anchor="end" x="71.6" y="4.199999999999999" transform="translate(0,209.42000000000002)" style="font-family: 'Open Sans', verdana, arial, sans-serif; font-size: 12px; fill: rgb(36, 36, 36); fill-opacity: 1; white-space: pre;">0.75</text></g><g class="ytick"><text text-anchor="end" x="71.6" y="4.199999999999999" transform="translate(0,163.7)" style="font-family: 'Open Sans', verdana, arial, sans-serif; font-size: 12px; fill: rgb(36, 36, 36); fill-opacity: 1; white-space: pre;">0.8</text></g><g class="ytick"><text text-anchor="end" x="71.6" y="4.199999999999999" transform="translate(0,117.99)" style="font-family: 'Open Sans', verdana, arial, sans-serif; font-size: 12px; fill: rgb(36, 36, 36); fill-opacity: 1; white-space: pre;">0.85</text></g></g><g class="overaxes-above"/></g><g class="subplot x2y2"><g class="layer-subplot"><g class="shapelayer"/><g class="imagelayer"/></g><g class="gridlayer"><g class="x2"/><g class="y2"/></g><g class="zerolinelayer"/><path class="xlines-below"/><path class="ylines-below"/><g class="overlines-below"/><g class="xaxislayer-below"/><g class="yaxislayer-below"/><g class="overaxes-below"/><g class="plot" transform="translate(377,100)" clip-path="url('#clip2b189fx2y2plot')"><g class="boxlayer mlayer"><g class="trace boxes" style="opacity: 1;"><path class="box" d="M23.89,96.36H38.4M23.89,115.65H38.4V78.79H23.89ZM31.14,115.65V142.14M31.14,78.79V76.68M27.51,142.14H34.77M27.51,76.68H34.77" style="vector-effect: non-scaling-stroke; stroke-width: 2px; stroke: rgb(248, 154, 54); stroke-opacity: 1; fill: rgb(248, 154, 54); fill-opacity: 0.5;"/><path class="box" d="M142.39,112.16H156.9M142.39,149.05H156.9V78.79H142.39ZM149.64,149.05V205.48M149.64,78.79V15.45M146.01,205.48H153.27M146.01,15.45H153.27" style="vector-effect: non-scaling-stroke; stroke-width: 2px; stroke: rgb(248, 154, 54); stroke-opacity: 1; fill: rgb(248, 154, 54); fill-opacity: 0.5;"/><g class="points"><path class="point" transform="translate(31.14,182.45)" d="M3,0A3,3 0 1,1 0,-3A3,3 0 0,1 3,0Z" style="opacity: 1; stroke-width: 0px; fill: rgb(248, 154, 54); fill-opacity: 1;"/></g><g class="points"/></g><g class="trace boxes" style="opacity: 1;"><path class="box" d="M44.62,96.36H59.14M44.62,115.65H59.14V78.79H44.62ZM51.88,115.65V142.14M51.88,78.79V76.68M48.25,142.14H55.51M48.25,76.68H55.51" style="vector-effect: non-scaling-stroke; stroke-width: 2px; stroke: rgb(25, 183, 223); stroke-opacity: 1; fill: rgb(25, 183, 223); fill-opacity: 0.5;"/><path class="box" d="M163.12,145.59H177.64M163.12,179.47H177.64V82.25H163.12ZM170.38,179.47V282.65M170.38,82.25V76.68M166.75,282.65H174.01M166.75,76.68H174.01" style="vector-effect: non-scaling-stroke; stroke-width: 2px; stroke: rgb(25, 183, 223); stroke-opacity: 1; fill: rgb(25, 183, 223); fill-opacity: 0.5;"/><g class="points"><path class="point" transform="translate(51.88,182.45)" d="M3,0A3,3 0 1,1 0,-3A3,3 0 0,1 3,0Z" style="opacity: 1; stroke-width: 0px; fill: rgb(25, 183, 223); fill-opacity: 1;"/></g><g class="points"/></g><g class="trace boxes" style="opacity: 1;"><path class="box" d="M65.36,166.88H79.88M65.36,206.53H79.88V131.96H65.36ZM72.62,206.53V241.36M72.62,131.96V115.72M68.99,241.36H76.25M68.99,115.72H76.25" style="vector-effect: non-scaling-stroke; stroke-width: 2px; stroke: rgb(101, 115, 126); stroke-opacity: 1; fill: rgb(101, 115, 126); fill-opacity: 0.5;"/><path class="box" d="M183.86,154.91H198.38M183.86,161.15H198.38V144.01H183.86ZM191.12,161.15V161.15M191.12,144.01V138.79M187.49,161.15H194.75M187.49,138.79H194.75" style="vector-effect: non-scaling-stroke; stroke-width: 2px; stroke: rgb(101, 115, 126); stroke-opacity: 1; fill: rgb(101, 115, 126); fill-opacity: 0.5;"/><g class="points"/><g class="points"><path class="point" transform="translate(191.12,201.94)" d="M3,0A3,3 0 1,1 0,-3A3,3 0 0,1 3,0Z" style="opacity: 1; stroke-width: 0px; fill: rgb(101, 115, 126); fill-opacity: 1;"/><path class="point" transform="translate(191.12,201.94)" d="M3,0A3,3 0 1,1 0,-3A3,3 0 0,1 3,0Z" style="opacity: 1; stroke-width: 0px; fill: rgb(101, 115, 126); fill-opacity: 1;"/></g></g><g class="trace boxes" style="opacity: 1;"><path class="box" d="M86.1,166.13H100.61M86.1,250.18H100.61V89.89H86.1ZM93.36,250.18V293.55M93.36,89.89V82.81M89.73,293.55H96.99M89.73,82.81H96.99" style="vector-effect: non-scaling-stroke; stroke-width: 2px; stroke: rgb(169, 169, 169); stroke-opacity: 1; fill: rgb(169, 169, 169); fill-opacity: 0.5;"/><path class="box" d="M204.6,145.04H219.11M204.6,155.33H219.11V144.04H204.6ZM211.86,155.33V155.33M211.86,144.04V144.04M208.23,155.33H215.49M208.23,144.04H215.49" style="vector-effect: non-scaling-stroke; stroke-width: 2px; stroke: rgb(169, 169, 169); stroke-opacity: 1; fill: rgb(169, 169, 169); fill-opacity: 0.5;"/><g class="points"/><g class="points"><path class="point" transform="translate(211.86,188.94)" d="M3,0A3,3 0 1,1 0,-3A3,3 0 0,1 3,0Z" style="opacity: 1; stroke-width: 0px; fill: rgb(169, 169, 169); fill-opacity: 1;"/><path class="point" transform="translate(211.86,188.94)" d="M3,0A3,3 0 1,1 0,-3A3,3 0 0,1 3,0Z" style="opacity: 1; stroke-width: 0px; fill: rgb(169, 169, 169); fill-opacity: 1;"/><path class="point" transform="translate(211.86,102.2)" d="M3,0A3,3 0 1,1 0,-3A3,3 0 0,1 3,0Z" style="opacity: 1; stroke-width: 0px; fill: rgb(169, 169, 169); fill-opacity: 1;"/><path class="point" transform="translate(211.86,102.2)" d="M3,0A3,3 0 1,1 0,-3A3,3 0 0,1 3,0Z" style="opacity: 1; stroke-width: 0px; fill: rgb(169, 169, 169); fill-opacity: 1;"/></g></g></g></g><g class="overplot"/><path class="xlines-above crisp" d="M376,409.5H620" style="fill: none; stroke-width: 1px; stroke: rgb(36, 36, 36); stroke-opacity: 1;"/><path class="ylines-above crisp" d="M376.5,100V409" style="fill: none; stroke-width: 1px; stroke: rgb(36, 36, 36); stroke-opacity: 1;"/><g class="overlines-above"/><g class="xaxislayer-above"><path class="x2tick ticks crisp" d="M0,410v5" transform="translate(439.25,0)" style="stroke: rgb(68, 68, 68); stroke-opacity: 1; stroke-width: 1px;"/><path class="x2tick ticks crisp" d="M0,410v5" transform="translate(557.75,0)" style="stroke: rgb(68, 68, 68); stroke-opacity: 1; stroke-width: 1px;"/><g class="x2tick"><text text-anchor="middle" x="0" y="429.4" transform="translate(439.25,0)" style="font-family: 'Open Sans', verdana, arial, sans-serif; font-size: 12px; fill: rgb(36, 36, 36); fill-opacity: 1; white-space: pre;">Logistic Regression</text></g><g class="x2tick"><text text-anchor="middle" x="0" y="429.4" transform="translate(557.75,0)" style="font-family: 'Open Sans', verdana, arial, sans-serif; font-size: 12px; fill: rgb(36, 36, 36); fill-opacity: 1; white-space: pre;">Random Forest</text></g></g><g class="yaxislayer-above"><path class="y2tick ticks crisp" d="M376,0h-5" transform="translate(0,372.63)" style="stroke: rgb(68, 68, 68); stroke-opacity: 1; stroke-width: 1px;"/><path class="y2tick ticks crisp" d="M376,0h-5" transform="translate(0,335.89)" style="stroke: rgb(68, 68, 68); stroke-opacity: 1; stroke-width: 1px;"/><path class="y2tick ticks crisp" d="M376,0h-5" transform="translate(0,299.15)" style="stroke: rgb(68, 68, 68); stroke-opacity: 1; stroke-width: 1px;"/><path class="y2tick ticks crisp" d="M376,0h-5" transform="translate(0,262.40999999999997)" style="stroke: rgb(68, 68, 68); stroke-opacity: 1; stroke-width: 1px;"/><path class="y2tick ticks crisp" d="M376,0h-5" transform="translate(0,225.67000000000002)" style="stroke: rgb(68, 68, 68); stroke-opacity: 1; stroke-width: 1px;"/><path class="y2tick ticks crisp" d="M376,0h-5" transform="translate(0,188.93)" style="stroke: rgb(68, 68, 68); stroke-opacity: 1; stroke-width: 1px;"/><path class="y2tick ticks crisp" d="M376,0h-5" transform="translate(0,152.19)" style="stroke: rgb(68, 68, 68); stroke-opacity: 1; stroke-width: 1px;"/><path class="y2tick ticks crisp" d="M376,0h-5" transform="translate(0,115.45)" style="stroke: rgb(68, 68, 68); stroke-opacity: 1; stroke-width: 1px;"/><g class="y2tick"><text text-anchor="end" x="368.6" y="4.199999999999999" transform="translate(0,372.63)" style="font-family: 'Open Sans', verdana, arial, sans-serif; font-size: 12px; fill: rgb(36, 36, 36); fill-opacity: 1; white-space: pre;">0.86</text></g><g class="y2tick"><text text-anchor="end" x="368.6" y="4.199999999999999" transform="translate(0,335.89)" style="font-family: 'Open Sans', verdana, arial, sans-serif; font-size: 12px; fill: rgb(36, 36, 36); fill-opacity: 1; white-space: pre;">0.88</text></g><g class="y2tick"><text text-anchor="end" x="368.6" y="4.199999999999999" transform="translate(0,299.15)" style="font-family: 'Open Sans', verdana, arial, sans-serif; font-size: 12px; fill: rgb(36, 36, 36); fill-opacity: 1; white-space: pre;">0.9</text></g><g class="y2tick"><text text-anchor="end" x="368.6" y="4.199999999999999" transform="translate(0,262.40999999999997)" style="font-family: 'Open Sans', verdana, arial, sans-serif; font-size: 12px; fill: rgb(36, 36, 36); fill-opacity: 1; white-space: pre;">0.92</text></g><g class="y2tick"><text text-anchor="end" x="368.6" y="4.199999999999999" transform="translate(0,225.67000000000002)" style="font-family: 'Open Sans', verdana, arial, sans-serif; font-size: 12px; fill: rgb(36, 36, 36); fill-opacity: 1; white-space: pre;">0.94</text></g><g class="y2tick"><text text-anchor="end" x="368.6" y="4.199999999999999" transform="translate(0,188.93)" style="font-family: 'Open Sans', verdana, arial, sans-serif; font-size: 12px; fill: rgb(36, 36, 36); fill-opacity: 1; white-space: pre;">0.96</text></g><g class="y2tick"><text text-anchor="end" x="368.6" y="4.199999999999999" transform="translate(0,152.19)" style="font-family: 'Open Sans', verdana, arial, sans-serif; font-size: 12px; fill: rgb(36, 36, 36); fill-opacity: 1; white-space: pre;">0.98</text></g><g class="y2tick"><text text-anchor="end" x="368.6" y="4.199999999999999" transform="translate(0,115.45)" style="font-family: 'Open Sans', verdana, arial, sans-serif; font-size: 12px; fill: rgb(36, 36, 36); fill-opacity: 1; white-space: pre;">1</text></g></g><g class="overaxes-above"/></g></g><g class="polarlayer"/><g class="ternarylayer"/><g class="geolayer"/><g class="funnelarealayer"/><g class="pielayer"/><g class="treemaplayer"/><g class="sunburstlayer"/><g class="glimages"/><defs id="topdefs-2b189f"><g class="clips"/><clipPath id="legend2b189f"><rect width="402" height="48" x="0" y="0"/></clipPath></defs><g class="layer-above"><g class="imagelayer"/><g class="shapelayer"/></g><g class="infolayer"><g class="legend" pointer-events="all" transform="translate(149,439.90000000000003)"><rect class="bg" shape-rendering="crispEdges" width="402" height="48" x="0" y="0" style="stroke: rgb(68, 68, 68); stroke-opacity: 1; fill: rgb(255, 255, 255); fill-opacity: 1; stroke-width: 0px;"/><g class="scrollbox" transform="" clip-path="url('#legend2b189f')"><g class="groups"><g class="traces" transform="translate(0,14.5)" style="opacity: 1;"><text class="legendtext" text-anchor="start" x="40" y="4.680000000000001" style="font-family: 'Open Sans', verdana, arial, sans-serif; font-size: 12px; fill: rgb(36, 36, 36); fill-opacity: 1; white-space: pre;">Centralized</text><g class="layers" style="opacity: 1;"><g class="legendfill"/><g class="legendlines"/><g class="legendsymbols"><g class="legendpoints"><path class="legendbox" d="M6,6H-6V-6H6Z" transform="translate(20,0)" style="stroke-width: 2px; fill: rgb(248, 154, 54); fill-opacity: 0.5; stroke: rgb(248, 154, 54); stroke-opacity: 1;"/></g></g></g><rect class="legendtoggle" x="0" y="-9.5" width="105.75" height="19" style="fill: rgb(0, 0, 0); fill-opacity: 0;"/></g><g class="traces" transform="translate(206.65625,14.5)" style="opacity: 1;"><text class="legendtext" text-anchor="start" x="40" y="4.680000000000001" style="font-family: 'Open Sans', verdana, arial, sans-serif; font-size: 12px; fill: rgb(36, 36, 36); fill-opacity: 1; white-space: pre;">Federated</text><g class="layers" style="opacity: 1;"><g class="legendfill"/><g class="legendlines"/><g class="legendsymbols"><g class="legendpoints"><path class="legendbox" d="M6,6H-6V-6H6Z" transform="translate(20,0)" style="stroke-width: 2px; fill: rgb(25, 183, 223); fill-opacity: 0.5; stroke: rgb(25, 183, 223); stroke-opacity: 1;"/></g></g></g><rect class="legendtoggle" x="0" y="-9.5" width="99.40625" height="19" style="fill: rgb(0, 0, 0); fill-opacity: 0;"/></g><g class="traces" transform="translate(0,33.5)" style="opacity: 1;"><text class="legendtext" text-anchor="start" x="40" y="4.680000000000001" style="font-family: 'Open Sans', verdana, arial, sans-serif; font-size: 12px; fill: rgb(36, 36, 36); fill-opacity: 1; white-space: pre;">Individual (Central Test Data)</text><g class="layers" style="opacity: 1;"><g class="legendfill"/><g class="legendlines"/><g class="legendsymbols"><g class="legendpoints"><path class="legendbox" d="M6,6H-6V-6H6Z" transform="translate(20,0)" style="stroke-width: 2px; fill: rgb(101, 115, 126); fill-opacity: 0.5; stroke: rgb(101, 115, 126); stroke-opacity: 1;"/></g></g></g><rect class="legendtoggle" x="0" y="-9.5" width="204.15625" height="19" style="fill: rgb(0, 0, 0); fill-opacity: 0;"/></g><g class="traces" transform="translate(206.65625,33.5)" style="opacity: 1;"><text class="legendtext" text-anchor="start" x="40" y="4.680000000000001" style="font-family: 'Open Sans', verdana, arial, sans-serif; font-size: 12px; fill: rgb(36, 36, 36); fill-opacity: 1; white-space: pre;">Individual (Local Test Data)</text><g class="layers" style="opacity: 1;"><g class="legendfill"/><g class="legendlines"/><g class="legendsymbols"><g class="legendpoints"><path class="legendbox" d="M6,6H-6V-6H6Z" transform="translate(20,0)" style="stroke-width: 2px; fill: rgb(169, 169, 169); fill-opacity: 0.5; stroke: rgb(169, 169, 169); stroke-opacity: 1;"/></g></g></g><rect class="legendtoggle" x="0" y="-9.5" width="192.546875" height="19" style="fill: rgb(0, 0, 0); fill-opacity: 0;"/></g></g></g><rect class="scrollbar" rx="20" ry="3" width="0" height="0" x="0" y="0" style="fill: rgb(128, 139, 164); fill-opacity: 1;"/></g><g class="g-gtitle"/><g class="g-xtitle"/><g class="g-x2title"/><g class="g-ytitle"><text class="ytitle" transform="rotate(-90,23.012500000000003,254.5)" x="23.012500000000003" y="254.5" text-anchor="middle" style="font-family: 'Open Sans', verdana, arial, sans-serif; font-size: 14px; fill: rgb(36, 36, 36); opacity: 1; font-weight: normal; white-space: pre;">Accuracy</text></g><g class="g-y2title"/><g class="annotation" data-index="0" style="opacity: 1;"><g class="annotation-text-g" transform="rotate(0,201.5,87)"><g class="cursor-pointer" transform="translate(152,74)"><rect class="bg" x="0.5" y="0.5" width="99" height="25" style="stroke-width: 1px; stroke: rgb(0, 0, 0); stroke-opacity: 0; fill: rgb(0, 0, 0); fill-opacity: 0;"/><text class="annotation-text" text-anchor="middle" x="49.796875" y="19" style="font-family: 'Open Sans', verdana, arial, sans-serif; font-size: 16px; fill: rgb(36, 36, 36); fill-opacity: 1; white-space: pre;">ILPD Dataset</text></g></g></g><g class="annotation" data-index="1" style="opacity: 1;"><g class="annotation-text-g" transform="rotate(0,498.5,87)"><g class="cursor-pointer" transform="translate(446,74)"><rect class="bg" x="0.5" y="0.5" width="105" height="25" style="stroke-width: 1px; stroke: rgb(0, 0, 0); stroke-opacity: 0; fill: rgb(0, 0, 0); fill-opacity: 0;"/><text class="annotation-text" text-anchor="middle" x="53" y="19" style="font-family: 'Open Sans', verdana, arial, sans-serif; font-size: 16px; fill: rgb(36, 36, 36); fill-opacity: 1; white-space: pre;">BRCA Dataset</text></g></g></g></g></svg>