<svg class="main-svg" xmlns="http://www.w3.org/2000/svg" xmlns:xlink="http://www.w3.org/1999/xlink" width="700" height="500" style="" viewBox="0 0 700 500"><rect x="0" y="0" width="700" height="500" style="fill: rgb(255, 255, 255); fill-opacity: 1;"/><defs id="defs-17783c"><g class="clips"><clipPath id="clip17783cxyplot" class="plotclip"><rect width="243" height="309"/></clipPath><clipPath id="clip17783cx2y2plot" class="plotclip"><rect width="242.99999999999997" height="309"/></clipPath><clipPath class="axesclip" id="clip17783cx"><rect x="80" y="0" width="243" height="500"/></clipPath><clipPath class="axesclip" id="clip17783cy"><rect x="0" y="100" width="700" height="309"/></clipPath><clipPath class="axesclip" id="clip17783cxy"><rect x="80" y="100" width="243" height="309"/></clipPath><clipPath class="axesclip" id="clip17783cy2"><rect x="0" y="100" width="700" height="309"/></clipPath><clipPath class="axesclip" id="clip17783cxy2"><rect x="80" y="100" width="243" height="309"/></clipPath><clipPath class="axesclip" id="clip17783cx2"><rect x="377" y="0" width="242.99999999999997" height="500"/></clipPath><clipPath class="axesclip" id="clip17783cx2y"><rect x="377" y="100" width="242.99999999999997" height="309"/></clipPath><clipPath class="axesclip" id="clip17783cx2y2"><rect x="377" y="100" width="242.99999999999997" height="309"/></clipPath></g><g class="gradients"/></defs><g class="bglayer"/><g class="layer-below"><g class="imagelayer"/><g class="shapelayer"/></g><g class="cartesianlayer"><g class="subplot xy"><g class="layer-subplot"><g class="shapelayer"/><g class="imagelayer"/></g><g class="gridlayer"><g class="x"/><g class="y"/></g><g class="zerolinelayer"/><path class="xlines-below"/><path class="ylines-below"/><g class="overlines-below"/><g class="xaxislayer-below"/><g class="yaxislayer-below"/><g class="overaxes-below"/><g class="plot" transform="translate(80,100)" clip-path="url('#clip17783cxyplot')"><g class="boxlayer mlayer"><g class="trace boxes" style="opacity: 1;"><path class="box" d="M23.89,192.98H38.4M23.89,259.25H38.4V111.87H23.89ZM31.14,259.25V293.55M31.14,111.87V71.28M27.51,293.55H34.77M27.51,71.28H34.77" style="vector-effect: non-scaling-stroke; stroke-width: 2px; stroke: rgb(248, 154, 54); stroke-opacity: 1; fill: rgb(248, 154, 54); fill-opacity: 0.5;"/><path class="box" d="M142.39,135.69H156.9M142.39,238.38H156.9V114.22H142.39ZM149.64,238.38V255.05M149.64,114.22V15.45M146.01,255.05H153.27M146.01,15.45H153.27" style="vector-effect: non-scaling-stroke; stroke-width: 2px; stroke: rgb(248, 154, 54); stroke-opacity: 1; fill: rgb(248, 154, 54); fill-opacity: 0.5;"/><g class="points"/><g class="points"/></g><g class="trace boxes" style="opacity: 1;"><path class="box" d="M44.62,192.98H59.14M44.62,259.25H59.14V111.87H44.62ZM51.88,259.25V293.55M51.88,111.87V71.28M48.25,293.55H55.51M48.25,71.28H55.51" style="vector-effect: non-scaling-stroke; stroke-width: 2px; stroke: rgb(25, 183, 223); stroke-opacity: 1; fill: rgb(25, 183, 223); fill-opacity: 0.5;"/><path class="box" d="M163.12,154.66H177.64M163.12,263.57H177.64V138.87H163.12ZM170.38,263.57V278.82M170.38,138.87V46.24M166.75,278.82H174.01M166.75,46.24H174.01" style="vector-effect: non-scaling-stroke; stroke-width: 2px; stroke: rgb(25, 183, 223); stroke-opacity: 1; fill: rgb(25, 183, 223); fill-opacity: 0.5;"/><g class="points"/><g class="points"/></g><g class="trace boxes" style="opacity: 1;"><path class="box" d="M65.36,165.88H79.88M65.36,169.48H79.88V147.97H65.36ZM72.62,169.48V179.71M72.62,147.97V147.97M68.99,179.71H76.25M68.99,147.97H76.25" style="vector-effect: non-scaling-stroke; stroke-width: 2px; stroke: rgb(101, 115, 126); stroke-opacity: 1; fill: rgb(101, 115, 126); fill-opacity: 0.5;"/><path class="box" d="M183.86,145.2H198.38M183.86,157.04H198.38V90.04H183.86ZM191.12,157.04V158.87M191.12,90.04V73.3M187.49,158.87H194.75M187.49,73.3H194.75" style="vector-effect: non-scaling-stroke; stroke-width: 2px; stroke: rgb(101, 115, 126); stroke-opacity: 1; fill: rgb(101, 115, 126); fill-opacity: 0.5;"/><g class="points"><path class="point" transform="translate(72.62,54.07)" d="M3,0A3,3 0 1,1 0,-3A3,3 0 0,1 3,0Z" style="opacity: 1; stroke-width: 0px; fill: rgb(101, 115, 126); fill-opacity: 1;"/><path class="point" transform="translate(72.62,54.07)" d="M3,0A3,3 0 1,1 0,-3A3,3 0 0,1 3,0Z" style="opacity: 1; stroke-width: 0px; fill: rgb(101, 115, 126); fill-opacity: 1;"/></g><g class="points"/></g><g class="trace boxes" style="opacity: 1;"><path class="box" d="M86.1,143.98H100.61M86.1,162.37H100.61V131.96H86.1ZM93.36,162.37V190.42M93.36,131.96V131.96M89.73,190.42H96.99M89.73,131.96H96.99" style="vector-effect: non-scaling-stroke; stroke-width: 2px; stroke: rgb(169, 169, 169); stroke-opacity: 1; fill: rgb(169, 169, 169); fill-opacity: 0.5;"/><path class="box" d="M204.6,188.33H219.11M204.6,191.04H219.11V144.16H204.6ZM211.86,191.04V191.28M211.86,144.16V110.28M208.23,191.28H215.49M208.23,110.28H215.49" style="vector-effect: non-scaling-stroke; stroke-width: 2px; stroke: rgb(169, 169, 169); stroke-opacity: 1; fill: rgb(169, 169, 169); fill-opacity: 0.5;"/><g class="points"><path class="point" transform="translate(93.36,55.27)" d="M3,0A3,3 0 1,1 0,-3A3,3 0 0,1 3,0Z" style="opacity: 1; stroke-width: 0px; fill: rgb(169, 169, 169); fill-opacity: 1;"/><path class="point" transform="translate(93.36,55.27)" d="M3,0A3,3 0 1,1 0,-3A3,3 0 0,1 3,0Z" style="opacity: 1; stroke-width: 0px; fill: rgb(169, 169, 169); fill-opacity: 1;"/></g><g class="points"/></g></g></g><g class="overplot"/><path class="xlines-above crisp" d="M79,409.5H323" style="fill: none; stroke-width: 1px; stroke: rgb(36, 36, 36); stroke-opacity: 1;"/><path class="ylines-above crisp" d="M79.5,100V409" style="fill: none; stroke-width: 1px; stroke: rgb(36, 36, 36); stroke-opacity: 1;"/><g class="overlines-above"/><g class="xaxislayer-above"><path class="xtick ticks crisp" d="M0,410v5" transform="translate(142.25,0)" style="stroke: rgb(68, 68, 68); stroke-opacity: 1; stroke-width: 1px;"/><path class="xtick ticks crisp" d="M0,410v5" transform="translate(260.75,0)" style="stroke: rgb(68, 68, 68); stroke-opacity: 1; stroke-width: 1px;"/><g class="xtick"><text text-anchor="middle" x="0" y="429.4" transform="translate(142.25,0)" style="font-family: 'Open Sans', verdana, arial, sans-serif; font-size: 12px; fill: rgb(36, 36, 36); fill-opacity: 1; white-space: pre;">Linear Regression</text></g><g class="xtick"><text text-anchor="middle" x="0" y="429.4" transform="translate(260.75,0)" style="font-family: 'Open Sans', verdana, arial, sans-serif; font-size: 12px; fill: rgb(36, 36, 36); fill-opacity: 1; white-space: pre;">Random Forest</text></g></g><g class="yaxislayer-above"><path class="ytick ticks crisp" d="M79,0h-5" transform="translate(0,408.36)" style="stroke: rgb(68, 68, 68); stroke-opacity: 1; stroke-width: 1px;"/><path class="ytick ticks crisp" d="M79,0h-5" transform="translate(0,347.39)" style="stroke: rgb(68, 68, 68); stroke-opacity: 1; stroke-width: 1px;"/><path class="ytick ticks crisp" d="M79,0h-5" transform="translate(0,286.40999999999997)" style="stroke: rgb(68, 68, 68); stroke-opacity: 1; stroke-width: 1px;"/><path class="ytick ticks crisp" d="M79,0h-5" transform="translate(0,225.44)" style="stroke: rgb(68, 68, 68); stroke-opacity: 1; stroke-width: 1px;"/><path class="ytick ticks crisp" d="M79,0h-5" transform="translate(0,164.47)" style="stroke: rgb(68, 68, 68); stroke-opacity: 1; stroke-width: 1px;"/><path class="ytick ticks crisp" d="M79,0h-5" transform="translate(0,103.49)" style="stroke: rgb(68, 68, 68); stroke-opacity: 1; stroke-width: 1px;"/><g class="ytick"><text text-anchor="end" x="71.6" y="4.199999999999999" transform="translate(0,408.36)" style="font-family: 'Open Sans', verdana, arial, sans-serif; font-size: 12px; fill: rgb(36, 36, 36); fill-opacity: 1; white-space: pre;">45</text></g><g class="ytick"><text text-anchor="end" x="71.6" y="4.199999999999999" transform="translate(0,347.39)" style="font-family: 'Open Sans', verdana, arial, sans-serif; font-size: 12px; fill: rgb(36, 36, 36); fill-opacity: 1; white-space: pre;">50</text></g><g class="ytick"><text text-anchor="end" x="71.6" y="4.199999999999999" transform="translate(0,286.40999999999997)" style="font-family: 'Open Sans', verdana, arial, sans-serif; font-size: 12px; fill: rgb(36, 36, 36); fill-opacity: 1; white-space: pre;">55</text></g><g class="ytick"><text text-anchor="end" x="71.6" y="4.199999999999999" transform="translate(0,225.44)" style="font-family: 'Open Sans', verdana, arial, sans-serif; font-size: 12px; fill: rgb(36, 36, 36); fill-opacity: 1; white-space: pre;">60</text></g><g class="ytick"><text text-anchor="end" x="71.6" y="4.199999999999999" transform="translate(0,164.47)" style="font-family: 'Open Sans', verdana, arial, sans-serif; font-size: 12px; fill: rgb(36, 36, 36); fill-opacity: 1; white-space: pre;">65</text></g><g class="ytick"><text text-anchor="end" x="71.6" y="4.199999999999999" transform="translate(0,103.49)" style="font-family: 'Open Sans', verdana, arial, sans-serif; font-size: 12px; fill: rgb(36, 36, 36); fill-opacity: 1; white-space: pre;">70</text></g></g><g class="overaxes-above"/></g><g class="subplot x2y2"><g class="layer-subplot"><g class="shapelayer"/><g class="imagelayer"/></g><g class="gridlayer"><g class="x2"/><g class="y2"/></g><g class="zerolinelayer"/><path class="xlines-below"/><path class="ylines-below"/><g class="overlines-below"/><g class="xaxislayer-below"/><g class="yaxislayer-below"/><g class="overaxes-below"/><g class="plot" transform="translate(377,100)" clip-path="url('#clip17783cx2y2plot')"><g class="boxlayer mlayer"><g class="trace boxes" style="opacity: 1;"><path class="box" d="M23.89,239.54H38.4M23.89,241.78H38.4V230.47H23.89ZM31.14,241.78V249.14M31.14,230.47V215.44M27.51,249.14H34.77M27.51,215.44H34.77" style="vector-effect: non-scaling-stroke; stroke-width: 2px; stroke: rgb(248, 154, 54); stroke-opacity: 1; fill: rgb(248, 154, 54); fill-opacity: 0.5;"/><path class="box" d="M142.39,262.01H156.9M142.39,271.4H156.9V252.5H142.39ZM149.64,271.4V275.08M149.64,252.5V240.22M146.01,275.08H153.27M146.01,240.22H153.27" style="vector-effect: non-scaling-stroke; stroke-width: 2px; stroke: rgb(248, 154, 54); stroke-opacity: 1; fill: rgb(248, 154, 54); fill-opacity: 0.5;"/><g class="points"/><g class="points"/></g><g class="trace boxes" style="opacity: 1;"><path class="box" d="M44.62,239.54H59.14M44.62,241.78H59.14V230.47H44.62ZM51.88,241.78V249.14M51.88,230.47V215.44M48.25,249.14H55.51M48.25,215.44H55.51" style="vector-effect: non-scaling-stroke; stroke-width: 2px; stroke: rgb(25, 183, 223); stroke-opacity: 1; fill: rgb(25, 183, 223); fill-opacity: 0.5;"/><path class="box" d="M163.12,235.19H177.64M163.12,241.57H177.64V221.72H163.12ZM170.38,241.57V246.92M170.38,221.72V212.91M166.75,246.92H174.01M166.75,212.91H174.01" style="vector-effect: non-scaling-stroke; stroke-width: 2px; stroke: rgb(25, 183, 223); stroke-opacity: 1; fill: rgb(25, 183, 223); fill-opacity: 0.5;"/><g class="points"/><g class="points"/></g><g class="trace boxes" style="opacity: 1;"><path class="box" d="M65.36,28.55H79.88M65.36,42.49H79.88V23.66H65.36ZM72.62,42.49V42.49M72.62,23.66V23.66M68.99,42.49H76.25M68.99,23.66H76.25" style="vector-effect: non-scaling-stroke; stroke-width: 2px; stroke: rgb(101, 115, 126); stroke-opacity: 1; fill: rgb(101, 115, 126); fill-opacity: 0.5;"/><path class="box" d="M183.86,218.19H198.38M183.86,221.83H198.38V214.32H183.86ZM191.12,221.83V232.39M191.12,214.32V214.32M187.49,232.39H194.75M187.49,214.32H194.75" style="vector-effect: non-scaling-stroke; stroke-width: 2px; stroke: rgb(101, 115, 126); stroke-opacity: 1; fill: rgb(101, 115, 126); fill-opacity: 0.5;"/><g class="points"><path class="point" transform="translate(72.62,214.62)" d="M3,0A3,3 0 1,1 0,-3A3,3 0 0,1 3,0Z" style="opacity: 1; stroke-width: 0px; fill: rgb(101, 115, 126); fill-opacity: 1;"/><path class="point" transform="translate(72.62,214.62)" d="M3,0A3,3 0 1,1 0,-3A3,3 0 0,1 3,0Z" style="opacity: 1; stroke-width: 0px; fill: rgb(101, 115, 126); fill-opacity: 1;"/><path class="point" transform="translate(72.62,-1698.8)" d="M3,0A3,3 0 1,1 0,-3A3,3 0 0,1 3,0Z" style="opacity: 1; stroke-width: 0px; fill: rgb(101, 115, 126); fill-opacity: 1;"/><path class="point" transform="translate(72.62,-1698.8)" d="M3,0A3,3 0 1,1 0,-3A3,3 0 0,1 3,0Z" style="opacity: 1; stroke-width: 0px; fill: rgb(101, 115, 126); fill-opacity: 1;"/></g><g class="points"><path class="point" transform="translate(191.12,190.48)" d="M3,0A3,3 0 1,1 0,-3A3,3 0 0,1 3,0Z" style="opacity: 1; stroke-width: 0px; fill: rgb(101, 115, 126); fill-opacity: 1;"/><path class="point" transform="translate(191.12,190.48)" d="M3,0A3,3 0 1,1 0,-3A3,3 0 0,1 3,0Z" style="opacity: 1; stroke-width: 0px; fill: rgb(101, 115, 126); fill-opacity: 1;"/></g></g><g class="trace boxes" style="opacity: 1;"><path class="box" d="M86.1,262.3H100.61M86.1,264.49H100.61V253.77H86.1ZM93.36,264.49V272.44M93.36,253.77V253.77M89.73,272.44H96.99M89.73,253.77H96.99" style="vector-effect: non-scaling-stroke; stroke-width: 2px; stroke: rgb(169, 169, 169); stroke-opacity: 1; fill: rgb(169, 169, 169); fill-opacity: 0.5;"/><path class="box" d="M204.6,267.3H219.11M204.6,268.3H219.11V265.72H204.6ZM211.86,268.3V268.5M211.86,265.72V265.72M208.23,268.5H215.49M208.23,265.72H215.49" style="vector-effect: non-scaling-stroke; stroke-width: 2px; stroke: rgb(169, 169, 169); stroke-opacity: 1; fill: rgb(169, 169, 169); fill-opacity: 0.5;"/><g class="points"><path class="point" transform="translate(93.36,187.43)" d="M3,0A3,3 0 1,1 0,-3A3,3 0 0,1 3,0Z" style="opacity: 1; stroke-width: 0px; fill: rgb(169, 169, 169); fill-opacity: 1;"/><path class="point" transform="translate(93.36,187.43)" d="M3,0A3,3 0 1,1 0,-3A3,3 0 0,1 3,0Z" style="opacity: 1; stroke-width: 0px; fill: rgb(169, 169, 169); fill-opacity: 1;"/></g><g class="points"><path class="point" transform="translate(211.86,236.11)" d="M3,0A3,3 0 1,1 0,-3A3,3 0 0,1 3,0Z" style="opacity: 1; stroke-width: 0px; fill: rgb(169, 169, 169); fill-opacity: 1;"/><path class="point" transform="translate(211.86,236.11)" d="M3,0A3,3 0 1,1 0,-3A3,3 0 0,1 3,0Z" style="opacity: 1; stroke-width: 0px; fill: rgb(169, 169, 169); fill-opacity: 1;"/></g></g></g></g><g class="overplot"/><path class="xlines-above crisp" d="M376,409.5H620" style="fill: none; stroke-width: 1px; stroke: rgb(36, 36, 36); stroke-opacity: 1;"/><path class="ylines-above crisp" d="M376.5,100V409" style="fill: none; stroke-width: 1px; stroke: rgb(36, 36, 36); stroke-opacity: 1;"/><g class="overlines-above"/><g class="xaxislayer-above"><path class="x2tick ticks crisp" d="M0,410v5" transform="translate(439.25,0)" style="stroke: rgb(68, 68, 68); stroke-opacity: 1; stroke-width: 1px;"/><path class="x2tick ticks crisp" d="M0,410v5" transform="translate(557.75,0)" style="stroke: rgb(68, 68, 68); stroke-opacity: 1; stroke-width: 1px;"/><g class="x2tick"><text text-anchor="middle" x="0" y="429.4" transform="translate(439.25,0)" style="font-family: 'Open Sans', verdana, arial, sans-serif; font-size: 12px; fill: rgb(36, 36, 36); fill-opacity: 1; white-space: pre;">Linear Regression</text></g><g class="x2tick"><text text-anchor="middle" x="0" y="429.4" transform="translate(557.75,0)" style="font-family: 'Open Sans', verdana, arial, sans-serif; font-size: 12px; fill: rgb(36, 36, 36); fill-opacity: 1; white-space: pre;">Random Forest</text></g></g><g class="yaxislayer-above"><path class="y2tick ticks crisp" d="M376,0h-5" transform="translate(0,409)" style="stroke: rgb(68, 68, 68); stroke-opacity: 1; stroke-width: 1px;"/><path class="y2tick ticks crisp" d="M376,0h-5" transform="translate(0,331.75)" style="stroke: rgb(68, 68, 68); stroke-opacity: 1; stroke-width: 1px;"/><path class="y2tick ticks crisp" d="M376,0h-5" transform="translate(0,254.5)" style="stroke: rgb(68, 68, 68); stroke-opacity: 1; stroke-width: 1px;"/><path class="y2tick ticks crisp" d="M376,0h-5" transform="translate(0,177.25)" style="stroke: rgb(68, 68, 68); stroke-opacity: 1; stroke-width: 1px;"/><path class="y2tick ticks crisp" d="M376,0h-5" transform="translate(0,100)" style="stroke: rgb(68, 68, 68); stroke-opacity: 1; stroke-width: 1px;"/><g class="y2tick"><text text-anchor="end" x="368.6" y="4.199999999999999" transform="translate(0,409)" style="font-family: 'Open Sans', verdana, arial, sans-serif; font-size: 12px; fill: rgb(36, 36, 36); fill-opacity: 1; white-space: pre;">0</text></g><g class="y2tick"><text text-anchor="end" x="368.6" y="4.199999999999999" transform="translate(0,331.75)" style="font-family: 'Open Sans', verdana, arial, sans-serif; font-size: 12px; fill: rgb(36, 36, 36); fill-opacity: 1; white-space: pre;">5</text></g><g class="y2tick"><text text-anchor="end" x="368.6" y="4.199999999999999" transform="translate(0,254.5)" style="font-family: 'Open Sans', verdana, arial, sans-serif; font-size: 12px; fill: rgb(36, 36, 36); fill-opacity: 1; white-space: pre;">10</text></g><g class="y2tick"><text text-anchor="end" x="368.6" y="4.199999999999999" transform="translate(0,177.25)" style="font-family: 'Open Sans', verdana, arial, sans-serif; font-size: 12px; fill: rgb(36, 36, 36); fill-opacity: 1; white-space: pre;">15</text></g><g class="y2tick"><text text-anchor="end" x="368.6" y="4.199999999999999" transform="translate(0,100)" style="font-family: 'Open Sans', verdana, arial, sans-serif; font-size: 12px; fill: rgb(36, 36, 36); fill-opacity: 1; white-space: pre;">20</text></g></g><g class="overaxes-above"/></g></g><g class="polarlayer"/><g class="ternarylayer"/><g class="geolayer"/><g class="funnelarealayer"/><g class="pielayer"/><g class="treemaplayer"/><g class="sunburstlayer"/><g class="glimages"/><defs id="topdefs-17783c"><g class="clips"/><clipPath id="legend17783c"><rect width="402" height="48" x="0" y="0"/></clipPath></defs><g class="layer-above"><g class="imagelayer"/><g class="shapelayer"/></g><g class="infolayer"><g class="legend" pointer-events="all" transform="translate(149,439.90000000000003)"><rect class="bg" shape-rendering="crispEdges" width="402" height="48" x="0" y="0" style="stroke: rgb(68, 68, 68); stroke-opacity: 1; fill: rgb(255, 255, 255); fill-opacity: 1; stroke-width: 0px;"/><g class="scrollbox" transform="" clip-path="url('#legend17783c')"><g class="groups"><g class="traces" transform="translate(0,14.5)" style="opacity: 1;"><text class="legendtext" text-anchor="start" x="40" y="4.680000000000001" style="font-family: 'Open Sans', verdana, arial, sans-serif; font-size: 12px; fill: rgb(36, 36, 36); fill-opacity: 1; white-space: pre;">Centralized</text><g class="layers" style="opacity: 1;"><g class="legendfill"/><g class="legendlines"/><g class="legendsymbols"><g class="legendpoints"><path class="legendbox" d="M6,6H-6V-6H6Z" transform="translate(20,0)" style="stroke-width: 2px; fill: rgb(248, 154, 54); fill-opacity: 0.5; stroke: rgb(248, 154, 54); stroke-opacity: 1;"/></g></g></g><rect class="legendtoggle" x="0" y="-9.5" width="105.75" height="19" style="fill: rgb(0, 0, 0); fill-opacity: 0;"/></g><g class="traces" transform="translate(206.65625,14.5)" style="opacity: 1;"><text class="legendtext" text-anchor="start" x="40" y="4.680000000000001" style="font-family: 'Open Sans', verdana, arial, sans-serif; font-size: 12px; fill: rgb(36, 36, 36); fill-opacity: 1; white-space: pre;">Federated</text><g class="layers" style="opacity: 1;"><g class="legendfill"/><g class="legendlines"/><g class="legendsymbols"><g class="legendpoints"><path class="legendbox" d="M6,6H-6V-6H6Z" transform="translate(20,0)" style="stroke-width: 2px; fill: rgb(25, 183, 223); fill-opacity: 0.5; stroke: rgb(25, 183, 223); stroke-opacity: 1;"/></g></g></g><rect class="legendtoggle" x="0" y="-9.5" width="99.40625" height="19" style="fill: rgb(0, 0, 0); fill-opacity: 0;"/></g><g class="traces" transform="translate(0,33.5)" style="opacity: 1;"><text class="legendtext" text-anchor="start" x="40" y="4.680000000000001" style="font-family: 'Open Sans', verdana, arial, sans-serif; font-size: 12px; fill: rgb(36, 36, 36); fill-opacity: 1; white-space: pre;">Individual (Central Test Data)</text><g class="layers" style="opacity: 1;"><g class="legendfill"/><g class="legendlines"/><g class="legendsymbols"><g class="legendpoints"><path class="legendbox" d="M6,6H-6V-6H6Z" transform="translate(20,0)" style="stroke-width: 2px; fill: rgb(101, 115, 126); fill-opacity: 0.5; stroke: rgb(101, 115, 126); stroke-opacity: 1;"/></g></g></g><rect class="legendtoggle" x="0" y="-9.5" width="204.15625" height="19" style="fill: rgb(0, 0, 0); fill-opacity: 0;"/></g><g class="traces" transform="translate(206.65625,33.5)" style="opacity: 1;"><text class="legendtext" text-anchor="start" x="40" y="4.680000000000001" style="font-family: 'Open Sans', verdana, arial, sans-serif; font-size: 12px; fill: rgb(36, 36, 36); fill-opacity: 1; white-space: pre;">Individual (Local Test Data)</text><g class="layers" style="opacity: 1;"><g class="legendfill"/><g class="legendlines"/><g class="legendsymbols"><g class="legendpoints"><path class="legendbox" d="M6,6H-6V-6H6Z" transform="translate(20,0)" style="stroke-width: 2px; fill: rgb(169, 169, 169); fill-opacity: 0.5; stroke: rgb(169, 169, 169); stroke-opacity: 1;"/></g></g></g><rect class="legendtoggle" x="0" y="-9.5" width="192.546875" height="19" style="fill: rgb(0, 0, 0); fill-opacity: 0;"/></g></g></g><rect class="scrollbar" rx="20" ry="3" width="0" height="0" x="0" y="0" style="fill: rgb(128, 139, 164); fill-opacity: 1;"/></g><g class="g-gtitle"/><g class="g-xtitle"/><g class="g-x2title"/><g class="g-ytitle"><text class="ytitle" transform="rotate(-90,33.075,254.5)" x="33.075" y="254.5" text-anchor="middle" style="font-family: 'Open Sans', verdana, arial, sans-serif; font-size: 14px; fill: rgb(36, 36, 36); opacity: 1; font-weight: normal; white-space: pre;">Root mean squared error</text></g><g class="g-y2title"/><g class="annotation" data-index="0" style="opacity: 1;"><g class="annotation-text-g" transform="rotate(0,201.5,87)"><g class="cursor-pointer" transform="translate(136,74)"><rect class="bg" x="0.5" y="0.5" width="131" height="25" style="stroke-width: 1px; stroke: rgb(0, 0, 0); stroke-opacity: 0; fill: rgb(0, 0, 0); fill-opacity: 0;"/><text class="annotation-text" text-anchor="middle" x="65.59375" y="19" style="font-family: 'Open Sans', verdana, arial, sans-serif; font-size: 16px; fill: rgb(36, 36, 36); fill-opacity: 1; white-space: pre;">Diabetes Dataset</text></g></g></g><g class="annotation" data-index="1" style="opacity: 1;"><g class="annotation-text-g" transform="rotate(0,498.5,87)"><g class="cursor-pointer" transform="translate(439,74)"><rect class="bg" x="0.5" y="0.5" width="118" height="25" style="stroke-width: 1px; stroke: rgb(0, 0, 0); stroke-opacity: 0; fill: rgb(0, 0, 0); fill-opacity: 0;"/><text class="annotation-text" text-anchor="middle" x="59.171875" y="19" style="font-family: 'Open Sans', verdana, arial, sans-serif; font-size: 16px; fill: rgb(36, 36, 36); fill-opacity: 1; white-space: pre;">Boston Dataset</text></g></g></g></g></svg>