<svg class="main-svg" xmlns="http://www.w3.org/2000/svg" xmlns:xlink="http://www.w3.org/1999/xlink" width="1000" height="500" style="" viewBox="0 0 1000 500"><rect x="0" y="0" width="1000" height="500" style="fill: rgb(255, 255, 255); fill-opacity: 1;"/><defs id="defs-3c6fa6"><g class="clips"><clipPath id="clip3c6fa6xyplot" class="plotclip"><rect width="242.66666666666669" height="320"/></clipPath><clipPath id="clip3c6fa6x2y2plot" class="plotclip"><rect width="242.66666666666669" height="320"/></clipPath><clipPath id="clip3c6fa6x3y3plot" class="plotclip"><rect width="242.66666666666666" height="320"/></clipPath><clipPath class="axesclip" id="clip3c6fa6x"><rect x="80" y="0" width="242.66666666666669" height="500"/></clipPath><clipPath class="axesclip" id="clip3c6fa6y"><rect x="0" y="100" width="1000" height="320"/></clipPath><clipPath class="axesclip" id="clip3c6fa6xy"><rect x="80" y="100" width="242.66666666666669" height="320"/></clipPath><clipPath class="axesclip" id="clip3c6fa6y2"><rect x="0" y="100" width="1000" height="320"/></clipPath><clipPath class="axesclip" id="clip3c6fa6xy2"><rect x="80" y="100" width="242.66666666666669" height="320"/></clipPath><clipPath class="axesclip" id="clip3c6fa6y3"><rect x="0" y="100" width="1000" height="320"/></clipPath><clipPath class="axesclip" id="clip3c6fa6xy3"><rect x="80" y="100" width="242.66666666666669" height="320"/></clipPath><clipPath class="axesclip" id="clip3c6fa6x2"><rect x="378.6666666666667" y="0" width="242.66666666666669" height="500"/></clipPath><clipPath class="axesclip" id="clip3c6fa6x2y"><rect x="378.6666666666667" y="100" width="242.66666666666669" height="320"/></clipPath><clipPath class="axesclip" id="clip3c6fa6x2y2"><rect x="378.6666666666667" y="100" width="242.66666666666669" height="320"/></clipPath><clipPath class="axesclip" id="clip3c6fa6x2y3"><rect x="378.6666666666667" y="100" width="242.66666666666669" height="320"/></clipPath><clipPath class="axesclip" id="clip3c6fa6x3"><rect x="677.3333333333334" y="0" width="242.66666666666666" height="500"/></clipPath><clipPath class="axesclip" id="clip3c6fa6x3y"><rect x="677.3333333333334" y="100" width="242.66666666666666" height="320"/></clipPath><clipPath class="axesclip" id="clip3c6fa6x3y2"><rect x="677.3333333333334" y="100" width="242.66666666666666" height="320"/></clipPath><clipPath class="axesclip" id="clip3c6fa6x3y3"><rect x="677.3333333333334" y="100" width="242.66666666666666" height="320"/></clipPath></g><g class="gradients"/><g class="patterns"/></defs><g class="bglayer"/><g class="layer-below"><g class="imagelayer"/><g class="shapelayer"/></g><g class="cartesianlayer"><g class="subplot xy"><g class="layer-subplot"><g class="shapelayer"/><g class="imagelayer"/></g><g class="minor-gridlayer"><g class="x"/><g class="y"/></g><g class="gridlayer"><g class="x"/><g class="y"/></g><g class="zerolinelayer"/><path class="xlines-below"/><path class="ylines-below"/><g class="overlines-below"/><g class="xaxislayer-below"/><g class="yaxislayer-below"/><g class="overaxes-below"/><g class="plot" transform="translate(80,100)" clip-path="url(#clip3c6fa6xyplot)"><g class="boxlayer mlayer"><g class="trace boxes" style="opacity: 1;"><path class="box" d="M23.86,199.85H38.35M23.86,268.48H38.35V115.85H23.86ZM31.1,268.48V304M31.1,115.85V73.82M27.48,304H34.73M27.48,73.82H34.73" style="vector-effect: non-scaling-stroke; stroke-width: 2px; stroke: rgb(248, 154, 54); stroke-opacity: 1; fill: rgb(248, 154, 54); fill-opacity: 0.5;"/><path class="box" d="M142.19,140.52H156.69M142.19,246.87H156.69V118.29H142.19ZM149.44,246.87V264.13M149.44,118.29V16M145.81,264.13H153.06M145.81,16H153.06" style="vector-effect: non-scaling-stroke; stroke-width: 2px; stroke: rgb(248, 154, 54); stroke-opacity: 1; fill: rgb(248, 154, 54); fill-opacity: 0.5;"/><g class="points"/><g class="points"/></g><g class="trace boxes" style="opacity: 1;"><path class="box" d="M44.56,199.85H59.06M44.56,268.48H59.06V115.85H44.56ZM51.81,268.48V304M51.81,115.85V73.82M48.19,304H55.44M48.19,73.82H55.44" style="vector-effect: non-scaling-stroke; stroke-width: 2px; stroke: rgb(25, 183, 223); stroke-opacity: 1; fill: rgb(25, 183, 223); fill-opacity: 0.5;"/><path class="box" d="M162.9,160.17H177.39M162.9,272.96H177.39V143.82H162.9ZM170.15,272.96V288.74M170.15,143.82V47.89M166.52,288.74H173.77M166.52,47.89H173.77" style="vector-effect: non-scaling-stroke; stroke-width: 2px; stroke: rgb(25, 183, 223); stroke-opacity: 1; fill: rgb(25, 183, 223); fill-opacity: 0.5;"/><g class="points"/><g class="points"/></g><g class="trace boxes" style="opacity: 1;"><path class="box" d="M65.27,171.78H79.77M65.27,175.51H79.77V153.24H65.27ZM72.52,175.51V186.11M72.52,153.24V153.24M68.9,186.11H76.14M68.9,153.24H76.14" style="vector-effect: non-scaling-stroke; stroke-width: 2px; stroke: rgb(101, 115, 126); stroke-opacity: 1; fill: rgb(101, 115, 126); fill-opacity: 0.5;"/><path class="box" d="M183.61,150.37H198.1M183.61,162.63H198.1V93.24H183.61ZM190.85,162.63V164.52M190.85,93.24V75.91M187.23,164.52H194.48M187.23,75.91H194.48" style="vector-effect: non-scaling-stroke; stroke-width: 2px; stroke: rgb(101, 115, 126); stroke-opacity: 1; fill: rgb(101, 115, 126); fill-opacity: 0.5;"/><g class="points"><path class="point" transform="translate(72.52,56)" d="M3,0A3,3 0 1,1 0,-3A3,3 0 0,1 3,0Z" style="opacity: 1; stroke-width: 0px; fill: rgb(101, 115, 126); fill-opacity: 1;"/><path class="point" transform="translate(72.52,56)" d="M3,0A3,3 0 1,1 0,-3A3,3 0 0,1 3,0Z" style="opacity: 1; stroke-width: 0px; fill: rgb(101, 115, 126); fill-opacity: 1;"/></g><g class="points"/></g><g class="trace boxes" style="opacity: 1;"><path class="box" d="M85.98,149.11H100.48M85.98,168.15H100.48V136.66H85.98ZM93.23,168.15V197.2M93.23,136.66V136.66M89.61,197.2H96.85M89.61,136.66H96.85" style="vector-effect: non-scaling-stroke; stroke-width: 2px; stroke: rgb(169, 169, 169); stroke-opacity: 1; fill: rgb(169, 169, 169); fill-opacity: 0.5;"/><path class="box" d="M204.31,195.03H218.81M204.31,197.84H218.81V149.3H204.31ZM211.56,197.84V198.09M211.56,149.3V114.2M207.94,198.09H215.19M207.94,114.2H215.19" style="vector-effect: non-scaling-stroke; stroke-width: 2px; stroke: rgb(169, 169, 169); stroke-opacity: 1; fill: rgb(169, 169, 169); fill-opacity: 0.5;"/><g class="points"><path class="point" transform="translate(93.23,57.23)" d="M3,0A3,3 0 1,1 0,-3A3,3 0 0,1 3,0Z" style="opacity: 1; stroke-width: 0px; fill: rgb(169, 169, 169); fill-opacity: 1;"/><path class="point" transform="translate(93.23,57.23)" d="M3,0A3,3 0 1,1 0,-3A3,3 0 0,1 3,0Z" style="opacity: 1; stroke-width: 0px; fill: rgb(169, 169, 169); fill-opacity: 1;"/></g><g class="points"/></g></g></g><g class="overplot"/><path class="xlines-above crisp" d="M79,420.5H322.6666666666667" style="fill: none; stroke-width: 1px; stroke: rgb(36, 36, 36); stroke-opacity: 1;"/><path class="ylines-above crisp" d="M79.5,100V420" style="fill: none; stroke-width: 1px; stroke: rgb(36, 36, 36); stroke-opacity: 1;"/><g class="overlines-above"/><g class="xaxislayer-above"><path class="xtick ticks crisp" d="M0,421v5" transform="translate(142.17000000000002,0)" style="stroke: rgb(68, 68, 68); stroke-opacity: 1; stroke-width: 1px;"/><path class="xtick ticks crisp" d="M0,421v5" transform="translate(260.5,0)" style="stroke: rgb(68, 68, 68); stroke-opacity: 1; stroke-width: 1px;"/><g class="xtick"><text text-anchor="middle" x="0" y="440.4" transform="translate(142.17000000000002,0)" style="font-family: 'Open Sans', verdana, arial, sans-serif; font-size: 12px; fill: rgb(36, 36, 36); fill-opacity: 1; white-space: pre; opacity: 1;">Linear Regression</text></g><g class="xtick"><text text-anchor="middle" x="0" y="440.4" transform="translate(260.5,0)" style="font-family: 'Open Sans', verdana, arial, sans-serif; font-size: 12px; fill: rgb(36, 36, 36); fill-opacity: 1; white-space: pre; opacity: 1;">Random Forest</text></g></g><g class="yaxislayer-above"><path class="ytick ticks crisp" d="M79,0h-5" transform="translate(0,419.34)" style="stroke: rgb(68, 68, 68); stroke-opacity: 1; stroke-width: 1px;"/><path class="ytick ticks crisp" d="M79,0h-5" transform="translate(0,356.19)" style="stroke: rgb(68, 68, 68); stroke-opacity: 1; stroke-width: 1px;"/><path class="ytick ticks crisp" d="M79,0h-5" transform="translate(0,293.05)" style="stroke: rgb(68, 68, 68); stroke-opacity: 1; stroke-width: 1px;"/><path class="ytick ticks crisp" d="M79,0h-5" transform="translate(0,229.91)" style="stroke: rgb(68, 68, 68); stroke-opacity: 1; stroke-width: 1px;"/><path class="ytick ticks crisp" d="M79,0h-5" transform="translate(0,166.76)" style="stroke: rgb(68, 68, 68); stroke-opacity: 1; stroke-width: 1px;"/><path class="ytick ticks crisp" d="M79,0h-5" transform="translate(0,103.62)" style="stroke: rgb(68, 68, 68); stroke-opacity: 1; stroke-width: 1px;"/><g class="ytick"><text text-anchor="end" x="71.6" y="4.199999999999999" transform="translate(0,419.34)" style="font-family: 'Open Sans', verdana, arial, sans-serif; font-size: 12px; fill: rgb(36, 36, 36); fill-opacity: 1; white-space: pre; opacity: 1;">45</text></g><g class="ytick"><text text-anchor="end" x="71.6" y="4.199999999999999" style="font-family: 'Open Sans', verdana, arial, sans-serif; font-size: 12px; fill: rgb(36, 36, 36); fill-opacity: 1; white-space: pre; opacity: 1;" transform="translate(0,356.19)">50</text></g><g class="ytick"><text text-anchor="end" x="71.6" y="4.199999999999999" style="font-family: 'Open Sans', verdana, arial, sans-serif; font-size: 12px; fill: rgb(36, 36, 36); fill-opacity: 1; white-space: pre; opacity: 1;" transform="translate(0,293.05)">55</text></g><g class="ytick"><text text-anchor="end" x="71.6" y="4.199999999999999" style="font-family: 'Open Sans', verdana, arial, sans-serif; font-size: 12px; fill: rgb(36, 36, 36); fill-opacity: 1; white-space: pre; opacity: 1;" transform="translate(0,229.91)">60</text></g><g class="ytick"><text text-anchor="end" x="71.6" y="4.199999999999999" style="font-family: 'Open Sans', verdana, arial, sans-serif; font-size: 12px; fill: rgb(36, 36, 36); fill-opacity: 1; white-space: pre; opacity: 1;" transform="translate(0,166.76)">65</text></g><g class="ytick"><text text-anchor="end" x="71.6" y="4.199999999999999" style="font-family: 'Open Sans', verdana, arial, sans-serif; font-size: 12px; fill: rgb(36, 36, 36); fill-opacity: 1; white-space: pre; opacity: 1;" transform="translate(0,103.62)">70</text></g></g><g class="overaxes-above"/></g><g class="subplot x2y2"><g class="layer-subplot"><g class="shapelayer"/><g class="imagelayer"/></g><g class="minor-gridlayer"><g class="x2"/><g class="y2"/></g><g class="gridlayer"><g class="x2"/><g class="y2"/></g><g class="zerolinelayer"/><path class="xlines-below"/><path class="ylines-below"/><g class="overlines-below"/><g class="xaxislayer-below"/><g class="yaxislayer-below"/><g class="overaxes-below"/><g class="plot" transform="translate(378.6666666666667,100)" clip-path="url(#clip3c6fa6x2y2plot)"><g class="boxlayer mlayer"><g class="trace boxes" style="opacity: 1;"><path class="box" d="M23.86,248.07H38.35M23.86,250.38H38.35V238.68H23.86ZM31.1,250.38V258.01M31.1,238.68V223.11M27.48,258.01H34.73M27.48,223.11H34.73" style="vector-effect: non-scaling-stroke; stroke-width: 2px; stroke: rgb(248, 154, 54); stroke-opacity: 1; fill: rgb(248, 154, 54); fill-opacity: 0.5;"/><path class="box" d="M142.19,271.34H156.69M142.19,281.06H156.69V261.48H142.19ZM149.44,281.06V284.87M149.44,261.48V248.77M145.81,284.87H153.06M145.81,248.77H153.06" style="vector-effect: non-scaling-stroke; stroke-width: 2px; stroke: rgb(248, 154, 54); stroke-opacity: 1; fill: rgb(248, 154, 54); fill-opacity: 0.5;"/><g class="points"/><g class="points"/></g><g class="trace boxes" style="opacity: 1;"><path class="box" d="M44.56,248.07H59.06M44.56,250.38H59.06V238.68H44.56ZM51.81,250.38V258.01M51.81,238.68V223.11M48.19,258.01H55.44M48.19,223.11H55.44" style="vector-effect: non-scaling-stroke; stroke-width: 2px; stroke: rgb(25, 183, 223); stroke-opacity: 1; fill: rgb(25, 183, 223); fill-opacity: 0.5;"/><path class="box" d="M162.9,243.56H177.39M162.9,250.17H177.39V229.61H162.9ZM170.15,250.17V255.71M170.15,229.61V220.49M166.52,255.71H173.77M166.52,220.49H173.77" style="vector-effect: non-scaling-stroke; stroke-width: 2px; stroke: rgb(25, 183, 223); stroke-opacity: 1; fill: rgb(25, 183, 223); fill-opacity: 0.5;"/><g class="points"/><g class="points"/></g><g class="trace boxes" style="opacity: 1;"><path class="box" d="M65.27,35.55H79.77M65.27,44H79.77V24.5H65.27ZM72.52,44V44M72.52,24.5V24.5M68.9,44H76.14M68.9,24.5H76.14" style="vector-effect: non-scaling-stroke; stroke-width: 2px; stroke: rgb(101, 115, 126); stroke-opacity: 1; fill: rgb(101, 115, 126); fill-opacity: 0.5;"/><path class="box" d="M183.61,225.95H198.1M183.61,229.72H198.1V221.95H183.61ZM190.85,229.72V240.66M190.85,221.95V221.95M187.23,240.66H194.48M187.23,221.95H194.48" style="vector-effect: non-scaling-stroke; stroke-width: 2px; stroke: rgb(101, 115, 126); stroke-opacity: 1; fill: rgb(101, 115, 126); fill-opacity: 0.5;"/><g class="points"><path class="point" transform="translate(72.52,222.26)" d="M3,0A3,3 0 1,1 0,-3A3,3 0 0,1 3,0Z" style="opacity: 1; stroke-width: 0px; fill: rgb(101, 115, 126); fill-opacity: 1;"/><path class="point" transform="translate(72.52,222.26)" d="M3,0A3,3 0 1,1 0,-3A3,3 0 0,1 3,0Z" style="opacity: 1; stroke-width: 0px; fill: rgb(101, 115, 126); fill-opacity: 1;"/><path class="point" transform="translate(72.52,-1759.27)" d="M3,0A3,3 0 1,1 0,-3A3,3 0 0,1 3,0Z" style="opacity: 1; stroke-width: 0px; fill: rgb(101, 115, 126); fill-opacity: 1;"/><path class="point" transform="translate(72.52,-1759.27)" d="M3,0A3,3 0 1,1 0,-3A3,3 0 0,1 3,0Z" style="opacity: 1; stroke-width: 0px; fill: rgb(101, 115, 126); fill-opacity: 1;"/></g><g class="points"><path class="point" transform="translate(190.85,197.26)" d="M3,0A3,3 0 1,1 0,-3A3,3 0 0,1 3,0Z" style="opacity: 1; stroke-width: 0px; fill: rgb(101, 115, 126); fill-opacity: 1;"/><path class="point" transform="translate(190.85,197.26)" d="M3,0A3,3 0 1,1 0,-3A3,3 0 0,1 3,0Z" style="opacity: 1; stroke-width: 0px; fill: rgb(101, 115, 126); fill-opacity: 1;"/></g></g><g class="trace boxes" style="opacity: 1;"><path class="box" d="M85.98,271.64H100.48M85.98,273.91H100.48V262.8H85.98ZM93.23,273.91V282.14M93.23,262.8V262.8M89.61,282.14H96.85M89.61,262.8H96.85" style="vector-effect: non-scaling-stroke; stroke-width: 2px; stroke: rgb(169, 169, 169); stroke-opacity: 1; fill: rgb(169, 169, 169); fill-opacity: 0.5;"/><path class="box" d="M204.31,276.85H218.81M204.31,277.85H218.81V275.18H204.31ZM211.56,277.85V278.06M211.56,275.18V275.18M207.94,278.06H215.19M207.94,275.18H215.19" style="vector-effect: non-scaling-stroke; stroke-width: 2px; stroke: rgb(169, 169, 169); stroke-opacity: 1; fill: rgb(169, 169, 169); fill-opacity: 0.5;"/><g class="points"><path class="point" transform="translate(93.23,197.75)" d="M3,0A3,3 0 1,1 0,-3A3,3 0 0,1 3,0Z" style="opacity: 1; stroke-width: 0px; fill: rgb(169, 169, 169); fill-opacity: 1;"/><path class="point" transform="translate(93.23,197.75)" d="M3,0A3,3 0 1,1 0,-3A3,3 0 0,1 3,0Z" style="opacity: 1; stroke-width: 0px; fill: rgb(169, 169, 169); fill-opacity: 1;"/></g><g class="points"><path class="point" transform="translate(211.56,244.52)" d="M3,0A3,3 0 1,1 0,-3A3,3 0 0,1 3,0Z" style="opacity: 1; stroke-width: 0px; fill: rgb(169, 169, 169); fill-opacity: 1;"/><path class="point" transform="translate(211.56,244.52)" d="M3,0A3,3 0 1,1 0,-3A3,3 0 0,1 3,0Z" style="opacity: 1; stroke-width: 0px; fill: rgb(169, 169, 169); fill-opacity: 1;"/></g></g></g></g><g class="overplot"/><path class="xlines-above crisp" d="M377.6666666666667,420.5H621.3333333333334" style="fill: none; stroke-width: 1px; stroke: rgb(36, 36, 36); stroke-opacity: 1;"/><path class="ylines-above crisp" d="M378.1666666666667,100V420" style="fill: none; stroke-width: 1px; stroke: rgb(36, 36, 36); stroke-opacity: 1;"/><g class="overlines-above"/><g class="xaxislayer-above"><path class="x2tick ticks crisp" d="M0,421v5" transform="translate(440.8366666666667,0)" style="stroke: rgb(68, 68, 68); stroke-opacity: 1; stroke-width: 1px;"/><path class="x2tick ticks crisp" d="M0,421v5" transform="translate(559.1666666666667,0)" style="stroke: rgb(68, 68, 68); stroke-opacity: 1; stroke-width: 1px;"/><g class="x2tick"><text text-anchor="middle" x="0" y="440.4" transform="translate(440.8366666666667,0)" style="font-family: 'Open Sans', verdana, arial, sans-serif; font-size: 12px; fill: rgb(36, 36, 36); fill-opacity: 1; white-space: pre; opacity: 1;">Linear Regression</text></g><g class="x2tick"><text text-anchor="middle" x="0" y="440.4" transform="translate(559.1666666666667,0)" style="font-family: 'Open Sans', verdana, arial, sans-serif; font-size: 12px; fill: rgb(36, 36, 36); fill-opacity: 1; white-space: pre; opacity: 1;">Random Forest</text></g></g><g class="yaxislayer-above"><path class="y2tick ticks crisp" d="M377.6666666666667,0h-5" transform="translate(0,420)" style="stroke: rgb(68, 68, 68); stroke-opacity: 1; stroke-width: 1px;"/><path class="y2tick ticks crisp" d="M377.6666666666667,0h-5" transform="translate(0,340)" style="stroke: rgb(68, 68, 68); stroke-opacity: 1; stroke-width: 1px;"/><path class="y2tick ticks crisp" d="M377.6666666666667,0h-5" transform="translate(0,260)" style="stroke: rgb(68, 68, 68); stroke-opacity: 1; stroke-width: 1px;"/><path class="y2tick ticks crisp" d="M377.6666666666667,0h-5" transform="translate(0,180)" style="stroke: rgb(68, 68, 68); stroke-opacity: 1; stroke-width: 1px;"/><path class="y2tick ticks crisp" d="M377.6666666666667,0h-5" transform="translate(0,100)" style="stroke: rgb(68, 68, 68); stroke-opacity: 1; stroke-width: 1px;"/><g class="y2tick"><text text-anchor="end" x="370.2666666666667" y="4.199999999999999" transform="translate(0,420)" style="font-family: 'Open Sans', verdana, arial, sans-serif; font-size: 12px; fill: rgb(36, 36, 36); fill-opacity: 1; white-space: pre; opacity: 1;">0</text></g><g class="y2tick"><text text-anchor="end" x="370.2666666666667" y="4.199999999999999" style="font-family: 'Open Sans', verdana, arial, sans-serif; font-size: 12px; fill: rgb(36, 36, 36); fill-opacity: 1; white-space: pre; opacity: 1;" transform="translate(0,340)">5</text></g><g class="y2tick"><text text-anchor="end" x="370.2666666666667" y="4.199999999999999" style="font-family: 'Open Sans', verdana, arial, sans-serif; font-size: 12px; fill: rgb(36, 36, 36); fill-opacity: 1; white-space: pre; opacity: 1;" transform="translate(0,260)">10</text></g><g class="y2tick"><text text-anchor="end" x="370.2666666666667" y="4.199999999999999" style="font-family: 'Open Sans', verdana, arial, sans-serif; font-size: 12px; fill: rgb(36, 36, 36); fill-opacity: 1; white-space: pre; opacity: 1;" transform="translate(0,180)">15</text></g><g class="y2tick"><text text-anchor="end" x="370.2666666666667" y="4.199999999999999" style="font-family: 'Open Sans', verdana, arial, sans-serif; font-size: 12px; fill: rgb(36, 36, 36); fill-opacity: 1; white-space: pre; opacity: 1;" transform="translate(0,100)">20</text></g></g><g class="overaxes-above"/></g><g class="subplot x3y3"><g class="layer-subplot"><g class="shapelayer"/><g class="imagelayer"/></g><g class="minor-gridlayer"><g class="x3"/><g class="y3"/></g><g class="gridlayer"><g class="x3"/><g class="y3"/></g><g class="zerolinelayer"/><path class="xlines-below"/><path class="ylines-below"/><g class="overlines-below"/><g class="xaxislayer-below"/><g class="yaxislayer-below"/><g class="overaxes-below"/><g class="plot" transform="translate(677.3333333333334,100)" clip-path="url(#clip3c6fa6x3y3plot)"><g class="boxlayer mlayer"><g class="trace boxes" style="opacity: 1;"><path class="box" d="M42.77,301.53H72.5M42.77,301.53H72.5V301.53H42.77ZM57.63,301.53V301.53M57.63,301.53V301.53M50.2,301.53H65.07M50.2,301.53H65.07" style="vector-effect: non-scaling-stroke; stroke-width: 2px; stroke: rgb(248, 154, 54); stroke-opacity: 1; fill: rgb(248, 154, 54); fill-opacity: 0.5;"/><g class="points"/></g><g class="trace boxes" style="opacity: 1;"><path class="box" d="M85.24,292.11H114.96M85.24,292.11H114.96V292.11H85.24ZM100.1,292.11V292.11M100.1,292.11V292.11M92.67,292.11H107.53M92.67,292.11H107.53" style="vector-effect: non-scaling-stroke; stroke-width: 2px; stroke: rgb(25, 183, 223); stroke-opacity: 1; fill: rgb(25, 183, 223); fill-opacity: 0.5;"/><g class="points"/></g><g class="trace boxes" style="opacity: 1;"><path class="box" d="M127.7,285.67H157.43M127.7,300.45H157.43V174.26H127.7ZM142.57,300.45V300.55M142.57,174.26V16M135.14,300.55H150M135.14,16H150" style="vector-effect: non-scaling-stroke; stroke-width: 2px; stroke: rgb(101, 115, 126); stroke-opacity: 1; fill: rgb(101, 115, 126); fill-opacity: 0.5;"/><g class="points"/></g><g class="trace boxes" style="opacity: 1;"><path class="box" d="M170.17,282.18H199.9M170.17,303.32H199.9V163.46H170.17ZM185.03,303.32V304M185.03,163.46V66.44M177.6,304H192.46M177.6,66.44H192.46" style="vector-effect: non-scaling-stroke; stroke-width: 2px; stroke: rgb(169, 169, 169); stroke-opacity: 1; fill: rgb(169, 169, 169); fill-opacity: 0.5;"/><g class="points"/></g></g></g><g class="overplot"/><path class="xlines-above crisp" d="M676.3333333333334,420.5H920" style="fill: none; stroke-width: 1px; stroke: rgb(36, 36, 36); stroke-opacity: 1;"/><path class="ylines-above crisp" d="M676.8333333333334,100V420" style="fill: none; stroke-width: 1px; stroke: rgb(36, 36, 36); stroke-opacity: 1;"/><g class="overlines-above"/><g class="xaxislayer-above"><path class="x3tick ticks crisp" d="M0,421v5" transform="translate(798.6633333333334,0)" style="stroke: rgb(68, 68, 68); stroke-opacity: 1; stroke-width: 1px;"/><g class="x3tick"><text text-anchor="middle" x="0" y="440.4" transform="translate(798.6633333333334,0)" style="font-family: 'Open Sans', verdana, arial, sans-serif; font-size: 12px; fill: rgb(36, 36, 36); fill-opacity: 1; white-space: pre; opacity: 1;">Deep Learning (300 epochs)</text></g></g><g class="yaxislayer-above"><path class="y3tick ticks crisp" d="M676.3333333333334,0h-5" transform="translate(0,363.24)" style="stroke: rgb(68, 68, 68); stroke-opacity: 1; stroke-width: 1px;"/><path class="y3tick ticks crisp" d="M676.3333333333334,0h-5" transform="translate(0,301.89)" style="stroke: rgb(68, 68, 68); stroke-opacity: 1; stroke-width: 1px;"/><path class="y3tick ticks crisp" d="M676.3333333333334,0h-5" transform="translate(0,240.54)" style="stroke: rgb(68, 68, 68); stroke-opacity: 1; stroke-width: 1px;"/><path class="y3tick ticks crisp" d="M676.3333333333334,0h-5" transform="translate(0,179.19)" style="stroke: rgb(68, 68, 68); stroke-opacity: 1; stroke-width: 1px;"/><path class="y3tick ticks crisp" d="M676.3333333333334,0h-5" transform="translate(0,117.84)" style="stroke: rgb(68, 68, 68); stroke-opacity: 1; stroke-width: 1px;"/><g class="y3tick"><text text-anchor="end" x="668.9333333333334" y="4.199999999999999" transform="translate(0,363.24)" style="font-family: 'Open Sans', verdana, arial, sans-serif; font-size: 12px; fill: rgb(36, 36, 36); fill-opacity: 1; white-space: pre; opacity: 1;">0.04</text></g><g class="y3tick"><text text-anchor="end" x="668.9333333333334" y="4.199999999999999" style="font-family: 'Open Sans', verdana, arial, sans-serif; font-size: 12px; fill: rgb(36, 36, 36); fill-opacity: 1; white-space: pre; opacity: 1;" transform="translate(0,301.89)">0.06</text></g><g class="y3tick"><text text-anchor="end" x="668.9333333333334" y="4.199999999999999" style="font-family: 'Open Sans', verdana, arial, sans-serif; font-size: 12px; fill: rgb(36, 36, 36); fill-opacity: 1; white-space: pre; opacity: 1;" transform="translate(0,240.54)">0.08</text></g><g class="y3tick"><text text-anchor="end" x="668.9333333333334" y="4.199999999999999" style="font-family: 'Open Sans', verdana, arial, sans-serif; font-size: 12px; fill: rgb(36, 36, 36); fill-opacity: 1; white-space: pre; opacity: 1;" transform="translate(0,179.19)">0.1</text></g><g class="y3tick"><text text-anchor="end" x="668.9333333333334" y="4.199999999999999" style="font-family: 'Open Sans', verdana, arial, sans-serif; font-size: 12px; fill: rgb(36, 36, 36); fill-opacity: 1; white-space: pre; opacity: 1;" transform="translate(0,117.84)">0.12</text></g></g><g class="overaxes-above"/></g></g><g class="polarlayer"/><g class="smithlayer"/><g class="ternarylayer"/><g class="geolayer"/><g class="funnelarealayer"/><g class="pielayer"/><g class="iciclelayer"/><g class="treemaplayer"/><g class="sunburstlayer"/><g class="glimages"/><defs id="topdefs-3c6fa6"><g class="clips"/><clipPath id="legend3c6fa6"><rect width="656" height="29" x="0" y="0"/></clipPath></defs><g class="layer-above"><g class="imagelayer"/><g class="shapelayer"/></g><g class="infolayer"><g class="legend" pointer-events="all" transform="translate(172,452)"><rect class="bg" shape-rendering="crispEdges" width="656" height="29" x="0" y="0" style="stroke: rgb(68, 68, 68); stroke-opacity: 1; fill: rgb(255, 255, 255); fill-opacity: 1; stroke-width: 0px;"/><g class="scrollbox" transform="" clip-path="url(#legend3c6fa6)"><g class="groups"><g class="traces" transform="translate(0,14.5)" style="opacity: 1;"><text class="legendtext" text-anchor="start" x="40" y="4.680000000000001" style="font-family: 'Open Sans', verdana, arial, sans-serif; font-size: 12px; fill: rgb(36, 36, 36); fill-opacity: 1; white-space: pre;">Centralized</text><g class="layers" style="opacity: 1;"><g class="legendfill"/><g class="legendlines"/><g class="legendsymbols"><g class="legendpoints"><path class="legendbox" d="M6,6H-6V-6H6Z" transform="translate(20,0)" style="stroke-width: 2px; fill: rgb(248, 154, 54); fill-opacity: 0.5; stroke: rgb(248, 154, 54); stroke-opacity: 1;"/></g></g></g><rect class="legendtoggle" x="0" y="-9.5" width="110.203125" height="19" style="fill: rgb(0, 0, 0); fill-opacity: 0;"/></g><g class="traces" transform="translate(112.703125,14.5)" style="opacity: 1;"><text class="legendtext" text-anchor="start" x="40" y="4.680000000000001" style="font-family: 'Open Sans', verdana, arial, sans-serif; font-size: 12px; fill: rgb(36, 36, 36); fill-opacity: 1; white-space: pre;">Federated</text><g class="layers" style="opacity: 1;"><g class="legendfill"/><g class="legendlines"/><g class="legendsymbols"><g class="legendpoints"><path class="legendbox" d="M6,6H-6V-6H6Z" transform="translate(20,0)" style="stroke-width: 2px; fill: rgb(25, 183, 223); fill-opacity: 0.5; stroke: rgb(25, 183, 223); stroke-opacity: 1;"/></g></g></g><rect class="legendtoggle" x="0" y="-9.5" width="102.859375" height="19" style="fill: rgb(0, 0, 0); fill-opacity: 0;"/></g><g class="traces" transform="translate(218.0625,14.5)" style="opacity: 1;"><text class="legendtext" text-anchor="start" x="40" y="4.680000000000001" style="font-family: 'Open Sans', verdana, arial, sans-serif; font-size: 12px; fill: rgb(36, 36, 36); fill-opacity: 1; white-space: pre;">Individual (Central Test Data)</text><g class="layers" style="opacity: 1;"><g class="legendfill"/><g class="legendlines"/><g class="legendsymbols"><g class="legendpoints"><path class="legendbox" d="M6,6H-6V-6H6Z" transform="translate(20,0)" style="stroke-width: 2px; fill: rgb(101, 115, 126); fill-opacity: 0.5; stroke: rgb(101, 115, 126); stroke-opacity: 1;"/></g></g></g><rect class="legendtoggle" x="0" y="-9.5" width="222.828125" height="19" style="fill: rgb(0, 0, 0); fill-opacity: 0;"/></g><g class="traces" transform="translate(443.390625,14.5)" style="opacity: 1;"><text class="legendtext" text-anchor="start" x="40" y="4.680000000000001" style="font-family: 'Open Sans', verdana, arial, sans-serif; font-size: 12px; fill: rgb(36, 36, 36); fill-opacity: 1; white-space: pre;">Individual (Local Test Data)</text><g class="layers" style="opacity: 1;"><g class="legendfill"/><g class="legendlines"/><g class="legendsymbols"><g class="legendpoints"><path class="legendbox" d="M6,6H-6V-6H6Z" transform="translate(20,0)" style="stroke-width: 2px; fill: rgb(169, 169, 169); fill-opacity: 0.5; stroke: rgb(169, 169, 169); stroke-opacity: 1;"/></g></g></g><rect class="legendtoggle" x="0" y="-9.5" width="210.0625" height="19" style="fill: rgb(0, 0, 0); fill-opacity: 0;"/></g></g></g><rect class="scrollbar" rx="20" ry="3" width="0" height="0" x="0" y="0" style="fill: rgb(128, 139, 164); fill-opacity: 1;"/></g><g class="g-gtitle"/><g class="g-xtitle"/><g class="g-x2title"/><g class="g-x3title"/><g class="g-ytitle"><text class="ytitle" transform="rotate(-90,31.528125000000003,260)" x="31.528125000000003" y="260" text-anchor="middle" style="font-family: 'Open Sans', verdana, arial, sans-serif; font-size: 14px; fill: rgb(36, 36, 36); opacity: 1; font-weight: normal; white-space: pre;">Root mean squared error</text></g><g class="g-y2title"/><g class="g-y3title"/><g class="annotation" data-index="0" style="opacity: 1;"><g class="annotation-text-g" transform="rotate(0,201.33333333333334,88)"><g class="cursor-pointer" transform="translate(130,76)"><rect class="bg" x="0.5" y="0.5" width="141" height="23" style="stroke-width: 1px; stroke: rgb(0, 0, 0); stroke-opacity: 0; fill: rgb(0, 0, 0); fill-opacity: 0;"/><text class="annotation-text" text-anchor="middle" x="70.828125" y="18" style="font-family: 'Open Sans', verdana, arial, sans-serif; font-size: 16px; fill: rgb(36, 36, 36); fill-opacity: 1; white-space: pre;">Diabetes Dataset</text></g></g></g><g class="annotation" data-index="1" style="opacity: 1;"><g class="annotation-text-g" transform="rotate(0,500,88)"><g class="cursor-pointer" transform="translate(437,76)"><rect class="bg" x="0.5" y="0.5" width="126" height="23" style="stroke-width: 1px; stroke: rgb(0, 0, 0); stroke-opacity: 0; fill: rgb(0, 0, 0); fill-opacity: 0;"/><text class="annotation-text" text-anchor="middle" x="63.40625" y="18" style="font-family: 'Open Sans', verdana, arial, sans-serif; font-size: 16px; fill: rgb(36, 36, 36); fill-opacity: 1; white-space: pre;">Boston Dataset</text></g></g></g><g class="annotation" data-index="2" style="opacity: 1;"><g class="annotation-text-g" transform="rotate(0,798.6666666666667,88)"><g class="cursor-pointer" transform="translate(735,76)"><rect class="bg" x="0.5" y="0.5" width="126" height="23" style="stroke-width: 1px; stroke: rgb(0, 0, 0); stroke-opacity: 0; fill: rgb(0, 0, 0); fill-opacity: 0;"/><text class="annotation-text" text-anchor="middle" x="63.40625" y="18" style="font-family: 'Open Sans', verdana, arial, sans-serif; font-size: 16px; fill: rgb(36, 36, 36); fill-opacity: 1; white-space: pre;">SHARE Dataset</text></g></g></g></g></svg>