<svg class="main-svg" xmlns="http://www.w3.org/2000/svg" xmlns:xlink="http://www.w3.org/1999/xlink" width="1000" height="500" style="" viewBox="0 0 1000 500"><rect x="0" y="0" width="1000" height="500" style="fill: rgb(255, 255, 255); fill-opacity: 1;"/><defs id="defs-9c0902"><g class="clips"><clipPath id="clip9c0902xyplot" class="plotclip"><rect width="378" height="320"/></clipPath><clipPath id="clip9c0902x2y2plot" class="plotclip"><rect width="377.99999999999994" height="320"/></clipPath><clipPath class="axesclip" id="clip9c0902x"><rect x="80" y="0" width="378" height="500"/></clipPath><clipPath class="axesclip" id="clip9c0902y"><rect x="0" y="100" width="1000" height="320"/></clipPath><clipPath class="axesclip" id="clip9c0902xy"><rect x="80" y="100" width="378" height="320"/></clipPath><clipPath class="axesclip" id="clip9c0902y2"><rect x="0" y="100" width="1000" height="320"/></clipPath><clipPath class="axesclip" id="clip9c0902xy2"><rect x="80" y="100" width="378" height="320"/></clipPath><clipPath class="axesclip" id="clip9c0902x2"><rect x="542" y="0" width="377.99999999999994" height="500"/></clipPath><clipPath class="axesclip" id="clip9c0902x2y"><rect x="542" y="100" width="377.99999999999994" height="320"/></clipPath><clipPath class="axesclip" id="clip9c0902x2y2"><rect x="542" y="100" width="377.99999999999994" height="320"/></clipPath></g><g class="gradients"/><g class="patterns"/></defs><g class="bglayer"/><g class="layer-below"><g class="imagelayer"/><g class="shapelayer"/></g><g class="cartesianlayer"><g class="subplot xy"><g class="layer-subplot"><g class="shapelayer"/><g class="imagelayer"/></g><g class="minor-gridlayer"><g class="x"/><g class="y"/></g><g class="gridlayer"><g class="x"/><g class="y"/></g><g class="zerolinelayer"/><path class="xlines-below"/><path class="ylines-below"/><g class="overlines-below"/><g class="xaxislayer-below"/><g class="yaxislayer-below"/><g class="overaxes-below"/><g class="plot" transform="translate(80,100)" clip-path="url(#clip9c0902xyplot)"><g class="boxlayer mlayer"><g class="trace boxes" style="opacity: 1;"><path class="box" d="M35.78,58.49H58.57M35.78,85.97H58.57V51.15H35.78ZM47.18,85.97V123.7M47.18,51.15V18.35M41.48,123.7H52.87M41.48,18.35H52.87" style="vector-effect: non-scaling-stroke; stroke-width: 2px; stroke: rgb(248, 154, 54); stroke-opacity: 1; fill: rgb(248, 154, 54); fill-opacity: 0.5;"/><path class="box" d="M221.78,68.64H244.57M221.78,89.94H244.57V49.35H221.78ZM233.18,89.94V128.72M233.18,49.35V23.35M227.48,128.72H238.87M227.48,23.35H238.87" style="vector-effect: non-scaling-stroke; stroke-width: 2px; stroke: rgb(248, 154, 54); stroke-opacity: 1; fill: rgb(248, 154, 54); fill-opacity: 0.5;"/><g class="points"/><g class="points"/></g><g class="trace boxes" style="opacity: 1;"><path class="box" d="M68.33,58.49H91.12M68.33,85.97H91.12V51.15H68.33ZM79.72,85.97V123.7M79.72,51.15V18.35M74.03,123.7H85.42M74.03,18.35H85.42" style="vector-effect: non-scaling-stroke; stroke-width: 2px; stroke: rgb(25, 183, 223); stroke-opacity: 1; fill: rgb(25, 183, 223); fill-opacity: 0.5;"/><path class="box" d="M254.33,52.77H277.12M254.33,74.67H277.12V49.35H254.33ZM265.73,74.67V78.12M265.73,49.35V16M260.03,78.12H271.42M260.03,16H271.42" style="vector-effect: non-scaling-stroke; stroke-width: 2px; stroke: rgb(25, 183, 223); stroke-opacity: 1; fill: rgb(25, 183, 223); fill-opacity: 0.5;"/><g class="points"/><g class="points"><path class="point" transform="translate(265.73,157.81)" d="M3,0A3,3 0 1,1 0,-3A3,3 0 0,1 3,0Z" style="opacity: 1; stroke-width: 0px; fill: rgb(25, 183, 223); fill-opacity: 1;"/></g></g><g class="trace boxes" style="opacity: 1;"><path class="box" d="M100.88,182.55H123.67M100.88,216.02H123.67V166.04H100.88ZM112.28,216.02V236.4M112.28,166.04V163.53M106.58,236.4H117.97M106.58,163.53H117.97" style="vector-effect: non-scaling-stroke; stroke-width: 2px; stroke: rgb(101, 115, 126); stroke-opacity: 1; fill: rgb(101, 115, 126); fill-opacity: 0.5;"/><path class="box" d="M286.88,165.41H309.67M286.88,178.23H309.67V164.41H286.88ZM298.27,178.23V198.24M298.27,164.41V152.74M292.58,198.24H303.97M292.58,152.74H303.97" style="vector-effect: non-scaling-stroke; stroke-width: 2px; stroke: rgb(101, 115, 126); stroke-opacity: 1; fill: rgb(101, 115, 126); fill-opacity: 0.5;"/><g class="points"/><g class="points"/></g><g class="trace boxes" style="opacity: 1;"><path class="box" d="M133.43,179.36H156.22M133.43,208.65H156.22V141.87H133.43ZM144.82,208.65V295.42M144.82,141.87V52.77M139.13,295.42H150.52M139.13,52.77H150.52" style="vector-effect: non-scaling-stroke; stroke-width: 2px; stroke: rgb(169, 169, 169); stroke-opacity: 1; fill: rgb(169, 169, 169); fill-opacity: 0.5;"/><path class="box" d="M319.43,204.71H342.22M319.43,205.71H342.22V139.85H319.43ZM330.83,205.71V304M330.83,139.85V139.85M325.13,304H336.52M325.13,139.85H336.52" style="vector-effect: non-scaling-stroke; stroke-width: 2px; stroke: rgb(169, 169, 169); stroke-opacity: 1; fill: rgb(169, 169, 169); fill-opacity: 0.5;"/><g class="points"/><g class="points"><path class="point" transform="translate(330.83,35.61)" d="M3,0A3,3 0 1,1 0,-3A3,3 0 0,1 3,0Z" style="opacity: 1; stroke-width: 0px; fill: rgb(169, 169, 169); fill-opacity: 1;"/><path class="point" transform="translate(330.83,35.61)" d="M3,0A3,3 0 1,1 0,-3A3,3 0 0,1 3,0Z" style="opacity: 1; stroke-width: 0px; fill: rgb(169, 169, 169); fill-opacity: 1;"/></g></g></g></g><g class="overplot"/><path class="xlines-above crisp" d="M79,420.5H458" style="fill: none; stroke-width: 1px; stroke: rgb(36, 36, 36); stroke-opacity: 1;"/><path class="ylines-above crisp" d="M79.5,100V420" style="fill: none; stroke-width: 1px; stroke: rgb(36, 36, 36); stroke-opacity: 1;"/><g class="overlines-above"/><g class="xaxislayer-above"><path class="xtick ticks crisp" d="M0,421v5" transform="translate(176,0)" style="stroke: rgb(68, 68, 68); stroke-opacity: 1; stroke-width: 1px;"/><path class="xtick ticks crisp" d="M0,421v5" transform="translate(362,0)" style="stroke: rgb(68, 68, 68); stroke-opacity: 1; stroke-width: 1px;"/><g class="xtick"><text text-anchor="middle" x="0" y="440.4" transform="translate(176,0)" style="font-family: 'Open Sans', verdana, arial, sans-serif; font-size: 12px; fill: rgb(36, 36, 36); fill-opacity: 1; white-space: pre; opacity: 1;">Logistic Regression</text></g><g class="xtick"><text text-anchor="middle" x="0" y="440.4" transform="translate(362,0)" style="font-family: 'Open Sans', verdana, arial, sans-serif; font-size: 12px; fill: rgb(36, 36, 36); fill-opacity: 1; white-space: pre; opacity: 1;">Random Forest</text></g></g><g class="yaxislayer-above"><path class="ytick ticks crisp" d="M79,0h-5" transform="translate(0,402.77)" style="stroke: rgb(68, 68, 68); stroke-opacity: 1; stroke-width: 1px;"/><path class="ytick ticks crisp" d="M79,0h-5" transform="translate(0,358.66)" style="stroke: rgb(68, 68, 68); stroke-opacity: 1; stroke-width: 1px;"/><path class="ytick ticks crisp" d="M79,0h-5" transform="translate(0,314.53999999999996)" style="stroke: rgb(68, 68, 68); stroke-opacity: 1; stroke-width: 1px;"/><path class="ytick ticks crisp" d="M79,0h-5" transform="translate(0,270.41999999999996)" style="stroke: rgb(68, 68, 68); stroke-opacity: 1; stroke-width: 1px;"/><path class="ytick ticks crisp" d="M79,0h-5" transform="translate(0,226.3)" style="stroke: rgb(68, 68, 68); stroke-opacity: 1; stroke-width: 1px;"/><path class="ytick ticks crisp" d="M79,0h-5" transform="translate(0,182.18)" style="stroke: rgb(68, 68, 68); stroke-opacity: 1; stroke-width: 1px;"/><path class="ytick ticks crisp" d="M79,0h-5" transform="translate(0,138.06)" style="stroke: rgb(68, 68, 68); stroke-opacity: 1; stroke-width: 1px;"/><g class="ytick"><text text-anchor="end" x="71.6" y="4.199999999999999" transform="translate(0,402.77)" style="font-family: 'Open Sans', verdana, arial, sans-serif; font-size: 12px; fill: rgb(36, 36, 36); fill-opacity: 1; white-space: pre; opacity: 1;">0.55</text></g><g class="ytick"><text text-anchor="end" x="71.6" y="4.199999999999999" style="font-family: 'Open Sans', verdana, arial, sans-serif; font-size: 12px; fill: rgb(36, 36, 36); fill-opacity: 1; white-space: pre; opacity: 1;" transform="translate(0,358.66)">0.6</text></g><g class="ytick"><text text-anchor="end" x="71.6" y="4.199999999999999" style="font-family: 'Open Sans', verdana, arial, sans-serif; font-size: 12px; fill: rgb(36, 36, 36); fill-opacity: 1; white-space: pre; opacity: 1;" transform="translate(0,314.53999999999996)">0.65</text></g><g class="ytick"><text text-anchor="end" x="71.6" y="4.199999999999999" style="font-family: 'Open Sans', verdana, arial, sans-serif; font-size: 12px; fill: rgb(36, 36, 36); fill-opacity: 1; white-space: pre; opacity: 1;" transform="translate(0,270.41999999999996)">0.7</text></g><g class="ytick"><text text-anchor="end" x="71.6" y="4.199999999999999" style="font-family: 'Open Sans', verdana, arial, sans-serif; font-size: 12px; fill: rgb(36, 36, 36); fill-opacity: 1; white-space: pre; opacity: 1;" transform="translate(0,226.3)">0.75</text></g><g class="ytick"><text text-anchor="end" x="71.6" y="4.199999999999999" style="font-family: 'Open Sans', verdana, arial, sans-serif; font-size: 12px; fill: rgb(36, 36, 36); fill-opacity: 1; white-space: pre; opacity: 1;" transform="translate(0,182.18)">0.8</text></g><g class="ytick"><text text-anchor="end" x="71.6" y="4.199999999999999" style="font-family: 'Open Sans', verdana, arial, sans-serif; font-size: 12px; fill: rgb(36, 36, 36); fill-opacity: 1; white-space: pre; opacity: 1;" transform="translate(0,138.06)">0.85</text></g></g><g class="overaxes-above"/></g><g class="subplot x2y2"><g class="layer-subplot"><g class="shapelayer"/><g class="imagelayer"/></g><g class="minor-gridlayer"><g class="x2"/><g class="y2"/></g><g class="gridlayer"><g class="x2"/><g class="y2"/></g><g class="zerolinelayer"/><path class="xlines-below"/><path class="ylines-below"/><g class="overlines-below"/><g class="xaxislayer-below"/><g class="yaxislayer-below"/><g class="overaxes-below"/><g class="plot" transform="translate(542,100)" clip-path="url(#clip9c0902x2y2plot)"><g class="boxlayer mlayer"><g class="trace boxes" style="opacity: 1;"><path class="box" d="M35.78,80.95H58.57M35.78,98.71H58.57V70.35H35.78ZM47.18,98.71V113.56M47.18,70.35V66.06M41.48,113.56H52.87M41.48,66.06H52.87" style="vector-effect: non-scaling-stroke; stroke-width: 2px; stroke: rgb(248, 154, 54); stroke-opacity: 1; fill: rgb(248, 154, 54); fill-opacity: 0.5;"/><path class="box" d="M221.78,92.31H244.57M221.78,124.71H244.57V63.56H221.78ZM233.17,124.71V194.35M233.17,63.56V16M227.48,194.35H238.87M227.48,16H238.87" style="vector-effect: non-scaling-stroke; stroke-width: 2px; stroke: rgb(248, 154, 54); stroke-opacity: 1; fill: rgb(248, 154, 54); fill-opacity: 0.5;"/><g class="points"><path class="point" transform="translate(47.18,149.97)" d="M3,0A3,3 0 1,1 0,-3A3,3 0 0,1 3,0Z" style="opacity: 1; stroke-width: 0px; fill: rgb(248, 154, 54); fill-opacity: 1;"/></g><g class="points"/></g><g class="trace boxes" style="opacity: 1;"><path class="box" d="M68.33,80.95H91.12M68.33,98.71H91.12V70.35H68.33ZM79.72,98.71V113.56M79.72,70.35V66.06M74.03,113.56H85.42M74.03,66.06H85.42" style="vector-effect: non-scaling-stroke; stroke-width: 2px; stroke: rgb(25, 183, 223); stroke-opacity: 1; fill: rgb(25, 183, 223); fill-opacity: 0.5;"/><path class="box" d="M254.33,118.91H277.12M254.33,158.68H277.12V77.37H254.33ZM265.72,158.68V221.66M265.72,77.37V68.84M260.03,221.66H271.42M260.03,68.84H271.42" style="vector-effect: non-scaling-stroke; stroke-width: 2px; stroke: rgb(25, 183, 223); stroke-opacity: 1; fill: rgb(25, 183, 223); fill-opacity: 0.5;"/><g class="points"><path class="point" transform="translate(79.72,149.97)" d="M3,0A3,3 0 1,1 0,-3A3,3 0 0,1 3,0Z" style="opacity: 1; stroke-width: 0px; fill: rgb(25, 183, 223); fill-opacity: 1;"/></g><g class="points"/></g><g class="trace boxes" style="opacity: 1;"><path class="box" d="M100.88,172.82H123.67M100.88,213.89H123.67V136.66H100.88ZM112.27,213.89V249.96M112.27,136.66V119.84M106.58,249.96H117.97M106.58,119.84H117.97" style="vector-effect: non-scaling-stroke; stroke-width: 2px; stroke: rgb(101, 115, 126); stroke-opacity: 1; fill: rgb(101, 115, 126); fill-opacity: 0.5;"/><path class="box" d="M286.88,160.43H309.67M286.88,166.89H309.67V149.14H286.88ZM298.27,166.89V166.89M298.27,149.14V143.73M292.58,166.89H303.97M292.58,143.73H303.97" style="vector-effect: non-scaling-stroke; stroke-width: 2px; stroke: rgb(101, 115, 126); stroke-opacity: 1; fill: rgb(101, 115, 126); fill-opacity: 0.5;"/><g class="points"/><g class="points"><path class="point" transform="translate(298.27,209.13)" d="M3,0A3,3 0 1,1 0,-3A3,3 0 0,1 3,0Z" style="opacity: 1; stroke-width: 0px; fill: rgb(101, 115, 126); fill-opacity: 1;"/><path class="point" transform="translate(298.27,209.13)" d="M3,0A3,3 0 1,1 0,-3A3,3 0 0,1 3,0Z" style="opacity: 1; stroke-width: 0px; fill: rgb(101, 115, 126); fill-opacity: 1;"/></g></g><g class="trace boxes" style="opacity: 1;"><path class="box" d="M133.43,172.05H156.22M133.43,259.08H156.22V93.09H133.43ZM144.82,259.08V304M144.82,93.09V85.75M139.13,304H150.52M139.13,85.75H150.52" style="vector-effect: non-scaling-stroke; stroke-width: 2px; stroke: rgb(169, 169, 169); stroke-opacity: 1; fill: rgb(169, 169, 169); fill-opacity: 0.5;"/><path class="box" d="M319.43,150.17H342.22M319.43,160.85H342.22V149.17H319.43ZM330.82,160.85V160.85M330.82,149.17V149.17M325.13,160.85H336.52M325.13,149.17H336.52" style="vector-effect: non-scaling-stroke; stroke-width: 2px; stroke: rgb(169, 169, 169); stroke-opacity: 1; fill: rgb(169, 169, 169); fill-opacity: 0.5;"/><g class="points"/><g class="points"><path class="point" transform="translate(330.82,195.67)" d="M3,0A3,3 0 1,1 0,-3A3,3 0 0,1 3,0Z" style="opacity: 1; stroke-width: 0px; fill: rgb(169, 169, 169); fill-opacity: 1;"/><path class="point" transform="translate(330.82,195.67)" d="M3,0A3,3 0 1,1 0,-3A3,3 0 0,1 3,0Z" style="opacity: 1; stroke-width: 0px; fill: rgb(169, 169, 169); fill-opacity: 1;"/><path class="point" transform="translate(330.82,105.83)" d="M3,0A3,3 0 1,1 0,-3A3,3 0 0,1 3,0Z" style="opacity: 1; stroke-width: 0px; fill: rgb(169, 169, 169); fill-opacity: 1;"/><path class="point" transform="translate(330.82,105.83)" d="M3,0A3,3 0 1,1 0,-3A3,3 0 0,1 3,0Z" style="opacity: 1; stroke-width: 0px; fill: rgb(169, 169, 169); fill-opacity: 1;"/></g></g></g></g><g class="overplot"/><path class="xlines-above crisp" d="M541,420.5H920" style="fill: none; stroke-width: 1px; stroke: rgb(36, 36, 36); stroke-opacity: 1;"/><path class="ylines-above crisp" d="M541.5,100V420" style="fill: none; stroke-width: 1px; stroke: rgb(36, 36, 36); stroke-opacity: 1;"/><g class="overlines-above"/><g class="xaxislayer-above"><path class="x2tick ticks crisp" d="M0,421v5" transform="translate(638,0)" style="stroke: rgb(68, 68, 68); stroke-opacity: 1; stroke-width: 1px;"/><path class="x2tick ticks crisp" d="M0,421v5" transform="translate(824,0)" style="stroke: rgb(68, 68, 68); stroke-opacity: 1; stroke-width: 1px;"/><g class="x2tick"><text text-anchor="middle" x="0" y="440.4" transform="translate(638,0)" style="font-family: 'Open Sans', verdana, arial, sans-serif; font-size: 12px; fill: rgb(36, 36, 36); fill-opacity: 1; white-space: pre; opacity: 1;">Logistic Regression</text></g><g class="x2tick"><text text-anchor="middle" x="0" y="440.4" transform="translate(824,0)" style="font-family: 'Open Sans', verdana, arial, sans-serif; font-size: 12px; fill: rgb(36, 36, 36); fill-opacity: 1; white-space: pre; opacity: 1;">Random Forest</text></g></g><g class="yaxislayer-above"><path class="y2tick ticks crisp" d="M541,0h-5" transform="translate(0,382.33)" style="stroke: rgb(68, 68, 68); stroke-opacity: 1; stroke-width: 1px;"/><path class="y2tick ticks crisp" d="M541,0h-5" transform="translate(0,344.28999999999996)" style="stroke: rgb(68, 68, 68); stroke-opacity: 1; stroke-width: 1px;"/><path class="y2tick ticks crisp" d="M541,0h-5" transform="translate(0,306.24)" style="stroke: rgb(68, 68, 68); stroke-opacity: 1; stroke-width: 1px;"/><path class="y2tick ticks crisp" d="M541,0h-5" transform="translate(0,268.19)" style="stroke: rgb(68, 68, 68); stroke-opacity: 1; stroke-width: 1px;"/><path class="y2tick ticks crisp" d="M541,0h-5" transform="translate(0,230.14)" style="stroke: rgb(68, 68, 68); stroke-opacity: 1; stroke-width: 1px;"/><path class="y2tick ticks crisp" d="M541,0h-5" transform="translate(0,192.1)" style="stroke: rgb(68, 68, 68); stroke-opacity: 1; stroke-width: 1px;"/><path class="y2tick ticks crisp" d="M541,0h-5" transform="translate(0,154.05)" style="stroke: rgb(68, 68, 68); stroke-opacity: 1; stroke-width: 1px;"/><path class="y2tick ticks crisp" d="M541,0h-5" transform="translate(0,116)" style="stroke: rgb(68, 68, 68); stroke-opacity: 1; stroke-width: 1px;"/><g class="y2tick"><text text-anchor="end" x="533.6" y="4.199999999999999" transform="translate(0,382.33)" style="font-family: 'Open Sans', verdana, arial, sans-serif; font-size: 12px; fill: rgb(36, 36, 36); fill-opacity: 1; white-space: pre; opacity: 1;">0.86</text></g><g class="y2tick"><text text-anchor="end" x="533.6" y="4.199999999999999" style="font-family: 'Open Sans', verdana, arial, sans-serif; font-size: 12px; fill: rgb(36, 36, 36); fill-opacity: 1; white-space: pre; opacity: 1;" transform="translate(0,344.28999999999996)">0.88</text></g><g class="y2tick"><text text-anchor="end" x="533.6" y="4.199999999999999" style="font-family: 'Open Sans', verdana, arial, sans-serif; font-size: 12px; fill: rgb(36, 36, 36); fill-opacity: 1; white-space: pre; opacity: 1;" transform="translate(0,306.24)">0.9</text></g><g class="y2tick"><text text-anchor="end" x="533.6" y="4.199999999999999" style="font-family: 'Open Sans', verdana, arial, sans-serif; font-size: 12px; fill: rgb(36, 36, 36); fill-opacity: 1; white-space: pre; opacity: 1;" transform="translate(0,268.19)">0.92</text></g><g class="y2tick"><text text-anchor="end" x="533.6" y="4.199999999999999" style="font-family: 'Open Sans', verdana, arial, sans-serif; font-size: 12px; fill: rgb(36, 36, 36); fill-opacity: 1; white-space: pre; opacity: 1;" transform="translate(0,230.14)">0.94</text></g><g class="y2tick"><text text-anchor="end" x="533.6" y="4.199999999999999" style="font-family: 'Open Sans', verdana, arial, sans-serif; font-size: 12px; fill: rgb(36, 36, 36); fill-opacity: 1; white-space: pre; opacity: 1;" transform="translate(0,192.1)">0.96</text></g><g class="y2tick"><text text-anchor="end" x="533.6" y="4.199999999999999" style="font-family: 'Open Sans', verdana, arial, sans-serif; font-size: 12px; fill: rgb(36, 36, 36); fill-opacity: 1; white-space: pre; opacity: 1;" transform="translate(0,154.05)">0.98</text></g><g class="y2tick"><text text-anchor="end" x="533.6" y="4.199999999999999" style="font-family: 'Open Sans', verdana, arial, sans-serif; font-size: 12px; fill: rgb(36, 36, 36); fill-opacity: 1; white-space: pre; opacity: 1;" transform="translate(0,116)">1</text></g></g><g class="overaxes-above"/></g></g><g class="polarlayer"/><g class="smithlayer"/><g class="ternarylayer"/><g class="geolayer"/><g class="funnelarealayer"/><g class="pielayer"/><g class="iciclelayer"/><g class="treemaplayer"/><g class="sunburstlayer"/><g class="glimages"/><defs id="topdefs-9c0902"><g class="clips"/><clipPath id="legend9c0902"><rect width="656" height="29" x="0" y="0"/></clipPath></defs><g class="layer-above"><g class="imagelayer"/><g class="shapelayer"/></g><g class="infolayer"><g class="legend" pointer-events="all" transform="translate(172,452)"><rect class="bg" shape-rendering="crispEdges" width="656" height="29" x="0" y="0" style="stroke: rgb(68, 68, 68); stroke-opacity: 1; fill: rgb(255, 255, 255); fill-opacity: 1; stroke-width: 0px;"/><g class="scrollbox" transform="" clip-path="url(#legend9c0902)"><g class="groups"><g class="traces" transform="translate(0,14.5)" style="opacity: 1;"><text class="legendtext" text-anchor="start" x="40" y="4.680000000000001" style="font-family: 'Open Sans', verdana, arial, sans-serif; font-size: 12px; fill: rgb(36, 36, 36); fill-opacity: 1; white-space: pre;">Centralized</text><g class="layers" style="opacity: 1;"><g class="legendfill"/><g class="legendlines"/><g class="legendsymbols"><g class="legendpoints"><path class="legendbox" d="M6,6H-6V-6H6Z" transform="translate(20,0)" style="stroke-width: 2px; fill: rgb(248, 154, 54); fill-opacity: 0.5; stroke: rgb(248, 154, 54); stroke-opacity: 1;"/></g></g></g><rect class="legendtoggle" x="0" y="-9.5" width="110.203125" height="19" style="fill: rgb(0, 0, 0); fill-opacity: 0;"/></g><g class="traces" transform="translate(112.703125,14.5)" style="opacity: 1;"><text class="legendtext" text-anchor="start" x="40" y="4.680000000000001" style="font-family: 'Open Sans', verdana, arial, sans-serif; font-size: 12px; fill: rgb(36, 36, 36); fill-opacity: 1; white-space: pre;">Federated</text><g class="layers" style="opacity: 1;"><g class="legendfill"/><g class="legendlines"/><g class="legendsymbols"><g class="legendpoints"><path class="legendbox" d="M6,6H-6V-6H6Z" transform="translate(20,0)" style="stroke-width: 2px; fill: rgb(25, 183, 223); fill-opacity: 0.5; stroke: rgb(25, 183, 223); stroke-opacity: 1;"/></g></g></g><rect class="legendtoggle" x="0" y="-9.5" width="102.859375" height="19" style="fill: rgb(0, 0, 0); fill-opacity: 0;"/></g><g class="traces" transform="translate(218.0625,14.5)" style="opacity: 1;"><text class="legendtext" text-anchor="start" x="40" y="4.680000000000001" style="font-family: 'Open Sans', verdana, arial, sans-serif; font-size: 12px; fill: rgb(36, 36, 36); fill-opacity: 1; white-space: pre;">Individual (Central Test Data)</text><g class="layers" style="opacity: 1;"><g class="legendfill"/><g class="legendlines"/><g class="legendsymbols"><g class="legendpoints"><path class="legendbox" d="M6,6H-6V-6H6Z" transform="translate(20,0)" style="stroke-width: 2px; fill: rgb(101, 115, 126); fill-opacity: 0.5; stroke: rgb(101, 115, 126); stroke-opacity: 1;"/></g></g></g><rect class="legendtoggle" x="0" y="-9.5" width="222.828125" height="19" style="fill: rgb(0, 0, 0); fill-opacity: 0;"/></g><g class="traces" transform="translate(443.390625,14.5)" style="opacity: 1;"><text class="legendtext" text-anchor="start" x="40" y="4.680000000000001" style="font-family: 'Open Sans', verdana, arial, sans-serif; font-size: 12px; fill: rgb(36, 36, 36); fill-opacity: 1; white-space: pre;">Individual (Local Test Data)</text><g class="layers" style="opacity: 1;"><g class="legendfill"/><g class="legendlines"/><g class="legendsymbols"><g class="legendpoints"><path class="legendbox" d="M6,6H-6V-6H6Z" transform="translate(20,0)" style="stroke-width: 2px; fill: rgb(169, 169, 169); fill-opacity: 0.5; stroke: rgb(169, 169, 169); stroke-opacity: 1;"/></g></g></g><rect class="legendtoggle" x="0" y="-9.5" width="210.0625" height="19" style="fill: rgb(0, 0, 0); fill-opacity: 0;"/></g></g></g><rect class="scrollbar" rx="20" ry="3" width="0" height="0" x="0" y="0" style="fill: rgb(128, 139, 164); fill-opacity: 1;"/></g><g class="g-gtitle"/><g class="g-xtitle"/><g class="g-x2title"/><g class="g-ytitle"><text class="ytitle" transform="rotate(-90,19.543750000000003,260)" x="19.543750000000003" y="260" text-anchor="middle" style="font-family: 'Open Sans', verdana, arial, sans-serif; font-size: 14px; fill: rgb(36, 36, 36); opacity: 1; font-weight: normal; white-space: pre;">F1-score</text></g><g class="g-y2title"/><g class="annotation" data-index="0" style="opacity: 1;"><g class="annotation-text-g" transform="rotate(0,269,88)"><g class="cursor-pointer" transform="translate(215,76)"><rect class="bg" x="0.5" y="0.5" width="108" height="23" style="stroke-width: 1px; stroke: rgb(0, 0, 0); stroke-opacity: 0; fill: rgb(0, 0, 0); fill-opacity: 0;"/><text class="annotation-text" text-anchor="middle" x="54.640625" y="18" style="font-family: 'Open Sans', verdana, arial, sans-serif; font-size: 16px; fill: rgb(36, 36, 36); fill-opacity: 1; white-space: pre;">ILPD Dataset</text></g></g></g><g class="annotation" data-index="1" style="opacity: 1;"><g class="annotation-text-g" transform="rotate(0,731,88)"><g class="cursor-pointer" transform="translate(673,76)"><rect class="bg" x="0.5" y="0.5" width="115" height="23" style="stroke-width: 1px; stroke: rgb(0, 0, 0); stroke-opacity: 0; fill: rgb(0, 0, 0); fill-opacity: 0;"/><text class="annotation-text" text-anchor="middle" x="57.9375" y="18" style="font-family: 'Open Sans', verdana, arial, sans-serif; font-size: 16px; fill: rgb(36, 36, 36); fill-opacity: 1; white-space: pre;">BRCA Dataset</text></g></g></g></g></svg>